<svg width="40" height="40" viewBox="0 0 40 40" fill="none" xmlns="http://www.w3.org/2000/svg">
<path d="M7.14603 33.93C7.27067 34.915 7.75001 35.8208 8.49432 36.4779C9.23864 37.1351 10.1969 37.4984 11.1898 37.5H28.8148C29.8077 37.4984 30.7659 37.1351 31.5102 36.4779C32.2546 35.8208 32.7339 34.915 32.8585 33.93L34.9835 16.9725C35.0551 16.399 35.004 15.8168 34.8334 15.2646C34.6629 14.7124 34.3768 14.2028 33.9943 13.7695C33.6118 13.3363 33.1415 12.9893 32.6147 12.7517C32.0878 12.5141 31.5165 12.3912 30.9385 12.3912H28.3148V10.815C28.2616 8.64566 27.3624 6.58309 25.8093 5.06762C24.2562 3.55215 22.1723 2.70386 20.0023 2.70386C17.8323 2.70386 15.7483 3.55215 14.1952 5.06762C12.6421 6.58309 11.743 8.64566 11.6898 10.815V12.3912H9.07103C8.49308 12.3912 7.92174 12.5141 7.3949 12.7517C6.86806 12.9893 6.39778 13.3363 6.01525 13.7695C5.63273 14.2028 5.3467 14.7124 5.17615 15.2646C5.0056 15.8168 4.95443 16.399 5.02603 16.9725L7.14603 33.93ZM14.1848 10.815C14.2291 9.30291 14.861 7.86765 15.9462 6.8138C17.0314 5.75995 18.4846 5.17047 19.9973 5.17047C21.51 5.17047 22.9632 5.75995 24.0484 6.8138C25.1336 7.86765 25.7654 9.30291 25.8098 10.815V12.3912H14.1848V10.815ZM7.88978 15.4237C8.03671 15.2551 8.21832 15.1203 8.4222 15.0283C8.62608 14.9364 8.8474 14.8897 9.07103 14.8912H11.6848V17.875C11.6848 18.2065 11.8165 18.5244 12.0509 18.7589C12.2853 18.9933 12.6033 19.125 12.9348 19.125C13.2663 19.125 13.5842 18.9933 13.8187 18.7589C14.0531 18.5244 14.1848 18.2065 14.1848 17.875V14.8912H25.8098V17.875C25.8098 18.2065 25.9415 18.5244 26.1759 18.7589C26.4103 18.9933 26.7283 19.125 27.0598 19.125C27.3913 19.125 27.7092 18.9933 27.9437 18.7589C28.1781 18.5244 28.3098 18.2065 28.3098 17.875V14.8912H30.9235C31.1479 14.8897 31.3701 14.9361 31.5752 15.0273C31.7802 15.1184 31.9635 15.2523 32.1127 15.42C32.2619 15.5876 32.3736 15.7852 32.4403 15.9994C32.5071 16.2137 32.5273 16.4398 32.4998 16.6625L30.3748 33.625C30.3253 34.0051 30.1392 34.3542 29.8513 34.6072C29.5633 34.8602 29.1931 34.9998 28.8098 35H11.1898C10.8065 34.9998 10.4363 34.8602 10.1483 34.6072C9.86033 34.3542 9.67425 34.0051 9.62478 33.625L7.50603 16.6625C7.47741 16.4406 7.49687 16.2151 7.56309 16.0013C7.6293 15.7876 7.74072 15.5906 7.88978 15.4237Z" fill="#C6A26E"/>
</svg>
