<svg width="30" height="30" viewBox="0 0 30 30" fill="none" xmlns="http://www.w3.org/2000/svg">
<path d="M28.8063 1.08401H9.44215C9.19945 1.08401 9.0027 1.28071 9.0027 1.52347C9.0027 1.76622 9.19945 1.96292 9.44215 1.96292H11.9636C11.7561 2.88226 10.9123 3.57255 9.90533 3.57255C8.74289 3.57255 7.79713 2.65333 7.79713 1.52347C7.79355 1.30339 7.62053 1.08108 7.35768 1.08401H1.19367C0.535488 1.08401 0 1.6195 0 2.27768V23.7667V23.7668C0 24.4249 0.53543 24.9604 1.19355 24.9604H1.19367H4.5593V26.0592H3.0975C2.53084 26.0592 2.06982 26.5203 2.06982 27.0869V27.8883C2.06982 28.4549 2.53084 28.9159 3.0975 28.9159H26.9024C27.4691 28.9159 27.9301 28.4549 27.9301 27.8883V27.0869C27.9301 26.5203 27.4691 26.0592 26.9024 26.0592H25.4406V24.9604H28.8063H28.8064C29.4645 24.9604 29.9999 24.4249 29.9999 23.7668V23.7667V2.27768C30 1.6195 29.4645 1.08401 28.8063 1.08401ZM25.4419 1.96292V4.2571C25.4419 4.8619 25.5802 5.46987 25.842 6.01526L26.4346 7.24989C26.5102 7.40739 26.6674 7.49927 26.8311 7.49927C26.8949 7.49927 26.9597 7.48532 27.021 7.45591C27.2398 7.35085 27.332 7.08835 27.227 6.8695L26.6344 5.63493C26.4292 5.20755 26.3208 4.73112 26.3208 4.2571V1.96292H28.8064C28.9799 1.96292 29.1212 2.10413 29.1212 2.27768V11.9668L25.5753 8.98761C24.3013 7.91722 23.4905 6.35235 23.3507 4.69433L23.1204 1.96292H25.4419ZM22.1541 1.96292C21.9466 2.88226 21.102 3.57255 20.0947 3.57255C19.0877 3.57255 18.2433 2.88231 18.0359 1.96292H22.1541ZM17.0594 1.96292C16.8519 2.88226 16.0073 3.57255 15 3.57255C13.9927 3.57255 13.1481 2.88231 12.9406 1.96292H17.0594ZM9.90527 4.45145C10.9817 4.45145 11.9268 3.89007 12.4524 3.05042C12.9782 3.89007 13.9233 4.45145 15 4.45145C16.0767 4.45145 17.0219 3.89007 17.5476 3.05042C18.0732 3.89007 19.0183 4.45145 20.0947 4.45145C21.0009 4.45145 21.8135 4.05337 22.3618 3.42683L22.4749 4.76821C22.6341 6.65768 23.5581 8.44093 25.0099 9.66061L28.8049 12.8491L27.4361 13.6654C26.3151 14.3339 25.4969 15.4452 25.1914 16.7142L23.4177 24.0815H6.58236L5.72959 20.5395H22.701C22.9437 20.5395 23.1404 20.3428 23.1404 20.1001C23.1404 19.8573 22.9437 19.6606 22.701 19.6606H5.51801L4.80861 16.7142C4.50311 15.4452 3.6849 14.3339 2.56389 13.6654L1.19514 12.8491L4.99008 9.66061C6.44186 8.44093 7.36582 6.65768 7.52508 4.76821L7.63816 3.42683C8.18648 4.05331 8.99906 4.45145 9.90527 4.45145ZM0.878906 2.27768C0.878906 2.10413 1.02012 1.96292 1.19367 1.96292H3.67922V4.2571C3.67922 4.73106 3.57076 5.20749 3.36568 5.63487L2.77307 6.8695C2.66807 7.08829 2.76023 7.35085 2.97908 7.45591C3.04043 7.48532 3.10518 7.49927 3.16893 7.49927C3.33264 7.49927 3.48984 7.40733 3.56543 7.24989L4.15811 6.0152C4.41984 5.46981 4.55818 4.8619 4.55818 4.2571V1.96292H6.87961L6.64934 4.69433C6.50959 6.35241 5.69877 7.91728 4.42477 8.98761L0.878906 11.9669V2.27768ZM0.878906 23.7667V13.6838L2.11377 14.4202C3.03287 14.9683 3.70365 15.8793 3.9542 16.9199L5.67832 24.0815H1.19367C1.02012 24.0815 0.878906 23.9403 0.878906 23.7667ZM10.3758 26.0592C10.1331 26.0592 9.93639 26.2559 9.93639 26.4987C9.93639 26.7415 10.1331 26.9382 10.3758 26.9382H26.9025C26.9845 26.9382 27.0513 27.0049 27.0513 27.0869V27.8883C27.0513 27.9703 26.9845 28.037 26.9025 28.037H3.0975C3.01547 28.037 2.94873 27.9703 2.94873 27.8883V27.0869C2.94873 27.0049 3.01547 26.9382 3.0975 26.9382H8.28287C8.52557 26.9382 8.72232 26.7415 8.72232 26.4987C8.72232 26.2559 8.52557 26.0592 8.28287 26.0592H5.4382V24.9604H24.5618V26.0592H10.3758ZM24.3217 24.0815L26.0459 16.9199C26.2963 15.8793 26.9672 14.9683 27.8863 14.4202L29.1211 13.6838V23.7667C29.1211 23.9403 28.9799 24.0815 28.8063 24.0815H24.3217Z" fill="#C6A26E"/>
<path d="M7.56675 10.8149L8.45034 13.6215C8.79968 14.7313 9.67577 15.5864 10.7939 15.9086L11.9908 16.2535C12.2092 16.5226 12.4697 16.7609 12.7671 16.9581L14.1301 17.8622C14.3943 18.0375 14.6973 18.1251 15.0002 18.1251C15.3031 18.1251 15.606 18.0375 15.8703 17.8622L17.2333 16.9581C18.203 16.315 18.7819 15.2363 18.7819 14.0728V11.1302C18.7819 10.2265 18.0467 9.49117 17.143 9.49117H15.0795L14.7813 8.54359C14.65 8.12611 14.3639 7.78474 13.9756 7.58236C13.5874 7.38009 13.1436 7.34101 12.7261 7.47226L8.63849 8.75904C7.77669 9.03062 7.29587 9.95277 7.56675 10.8149ZM17.903 11.1303V14.0728C17.903 14.941 17.4711 15.7459 16.7475 16.2258L15.3845 17.1298C15.1511 17.2847 14.8494 17.2847 14.6159 17.1298L13.2529 16.2258C12.5293 15.7459 12.0974 14.941 12.0974 14.0728V11.1303C12.0974 10.7111 12.4383 10.3701 12.8575 10.3701H17.143C17.562 10.3702 17.903 10.7111 17.903 11.1303ZM8.90245 9.59746L12.9898 8.31074C13.1834 8.24992 13.3892 8.26802 13.5694 8.36189C13.7494 8.4557 13.882 8.6139 13.9429 8.80744L14.1581 9.49128H12.8575C11.9537 9.49128 11.2185 10.2266 11.2185 11.1303V14.0729C11.2185 14.4507 11.2799 14.8195 11.3956 15.1674L11.0374 15.0642C10.2031 14.8237 9.54938 14.1858 9.28876 13.3577L8.40522 10.5513C8.27954 10.1513 8.50267 9.72343 8.90245 9.59746Z" fill="#C6A26E"/>
<path d="M13.7922 14.5363C14.0697 14.7429 14.565 14.9808 15.0981 14.9808C15.4875 14.9808 15.8971 14.8538 16.2563 14.4946C16.4279 14.323 16.4279 14.0447 16.2563 13.8731C16.0847 13.7015 15.8065 13.7015 15.6348 13.8731C15.1111 14.397 14.352 13.8567 14.3157 13.8303C14.1211 13.6866 13.8469 13.7273 13.7022 13.9214C13.5573 14.116 13.5976 14.3914 13.7922 14.5363Z" fill="#C6A26E"/>
<path d="M18.9822 8.05547C19.068 8.14125 19.1805 8.18414 19.293 8.18414C19.4054 8.18414 19.5179 8.14125 19.6037 8.05547L19.9779 7.68129L20.352 8.05547C20.4378 8.14125 20.5503 8.18414 20.6628 8.18414C20.7752 8.18414 20.8877 8.14125 20.9735 8.05547C21.1451 7.88379 21.1451 7.60559 20.9735 7.43396L20.5994 7.05984L20.9735 6.68572C21.1451 6.51404 21.1451 6.23584 20.9735 6.06422C20.8019 5.89266 20.5236 5.89266 20.352 6.06422L19.9779 6.4384L19.6037 6.06422C19.4321 5.89266 19.1538 5.89266 18.9822 6.06422C18.8106 6.2359 18.8106 6.5141 18.9822 6.68572L19.3564 7.05984L18.9822 7.43396C18.8106 7.60559 18.8106 7.88379 18.9822 8.05547Z" fill="#C6A26E"/>
<path d="M22.6426 11.91C22.8939 11.91 23.0977 11.7062 23.0977 11.4549C23.0977 11.2035 22.8939 10.9998 22.6426 10.9998C22.3913 10.9998 22.1875 11.2035 22.1875 11.4549C22.1875 11.7062 22.3913 11.91 22.6426 11.91Z" fill="#C6A26E"/>
</svg>
