<svg width="30" height="30" viewBox="0 0 30 30" fill="none" xmlns="http://www.w3.org/2000/svg">
<path fill-rule="evenodd" clip-rule="evenodd" d="M29.4141 3.30884H0.585938C0.262383 3.30884 0 3.57122 0 3.89478V26.1051C0 26.4288 0.262383 26.6911 0.585938 26.6911H29.4141C29.7376 26.6911 30 26.4288 30 26.1051V3.89478C30 3.57116 29.7376 3.30884 29.4141 3.30884ZM28.8281 4.48071V5.51577C26.9604 7.12505 22.4948 8.32622 17.3123 8.59733C16.9891 8.61427 16.7409 8.88989 16.7578 9.2131C16.7742 9.52581 17.0329 9.76839 17.3425 9.76839C17.3528 9.76839 17.3632 9.7681 17.3736 9.76757C19.4609 9.65841 21.4223 9.40599 23.1676 9.03673C23.9307 11.3346 25.186 13.2542 26.9081 14.7556C26.6361 15.1338 26.2745 15.7447 25.9105 16.6798C25.0575 18.871 24.5522 21.8431 24.4062 25.5192H5.59383C5.44781 21.8431 4.94256 18.871 4.08955 16.6798C3.72551 15.7447 3.36387 15.1338 3.09199 14.7556C4.81406 13.2542 6.06932 11.3346 6.83244 9.03673C8.57771 9.40599 10.5392 9.65835 12.6265 9.76757C12.6369 9.7681 12.6473 9.76839 12.6576 9.76839C12.9671 9.76839 13.2258 9.52575 13.2422 9.2131C13.2591 8.88989 13.0109 8.61427 12.6877 8.59733C7.50522 8.32622 3.03955 7.12505 1.17188 5.51577V4.48071H28.8281ZM1.17188 6.96655C2.29061 7.68315 3.83854 8.2964 5.6857 8.76942C4.92387 11.0031 3.65244 12.8359 1.89943 14.2232C1.7584 14.3348 1.66852 14.4986 1.66916 14.6785C1.66986 14.8567 1.74375 15.0184 1.88297 15.129C1.93313 15.1767 2.48344 15.7248 3.05854 17.2651C3.5908 18.6909 4.24617 21.2647 4.42072 25.5192H1.17188V6.96655ZM25.5793 25.5192C25.7539 21.2646 26.4092 18.6908 26.9415 17.265C27.5166 15.7247 28.0669 15.1766 28.117 15.1289C28.2563 15.0184 28.3302 14.8566 28.3308 14.6784C28.3315 14.4986 28.2417 14.3348 28.1006 14.2231C26.3476 12.8359 25.0761 11.0031 24.3143 8.76936C26.1615 8.2964 27.7094 7.68315 28.8281 6.96649V25.5191H25.5793V25.5192Z" fill="#C6A26E"/>
<path fill-rule="evenodd" clip-rule="evenodd" d="M15 12.3074C14.7868 12.3074 14.5903 12.4232 14.4872 12.61L13.0826 15.1521L10.2308 15.7024C10.0214 15.7428 9.85046 15.8938 9.78455 16.0967C9.71863 16.2995 9.7682 16.5221 9.91386 16.6779L11.8976 18.7994L11.5396 21.6816C11.5134 21.8932 11.6042 22.1024 11.7767 22.2278C11.9492 22.3532 12.1762 22.3748 12.3694 22.2845L15 21.0534L17.6306 22.2845C17.7097 22.3215 17.7945 22.3397 17.8789 22.3397C18.0006 22.3397 18.1214 22.3018 18.2233 22.2278C18.3958 22.1024 18.4867 21.8932 18.4604 21.6816L18.1025 18.7994L20.0861 16.6779C20.2318 16.5221 20.2814 16.2995 20.2155 16.0967C20.1495 15.8938 19.9786 15.7428 19.7692 15.7024L16.9175 15.1521L15.5128 12.61C15.4097 12.4232 15.2133 12.3074 15 12.3074ZM16.4263 16.2507L18.506 16.6521L17.0593 18.1992C16.9407 18.3261 16.8844 18.4992 16.9058 18.6717L17.1668 20.7736L15.2484 19.8758C15.1697 19.839 15.0849 19.8206 15.0001 19.8206C14.9152 19.8206 14.8304 19.839 14.7518 19.8758L12.8334 20.7736L13.0944 18.6717C13.1158 18.4992 13.0595 18.3262 12.9409 18.1992L11.4942 16.6521L13.5739 16.2507C13.7445 16.2178 13.8917 16.1109 13.9758 15.9588L15 14.1049L16.0244 15.9588C16.1085 16.1109 16.2556 16.2178 16.4263 16.2507Z" fill="#C6A26E"/>
<path fill-rule="evenodd" clip-rule="evenodd" d="M15 9.8294C15.3227 9.8294 15.5859 9.5662 15.5859 9.24347C15.5859 8.92073 15.3227 8.65747 15 8.65747C14.6773 8.65747 14.4141 8.92073 14.4141 9.24347C14.4141 9.5662 14.6773 9.8294 15 9.8294Z" fill="#C6A26E"/>
</svg>
