<svg width="24" height="24" viewBox="0 0 24 24" fill="none" xmlns="http://www.w3.org/2000/svg">
<path d="M3.66552 11.1119C3.25132 11.113 2.8459 11.2314 2.49618 11.4534C2.14646 11.6753 1.86673 11.9918 1.68935 12.3661C1.51197 12.7404 1.44419 13.1573 1.49385 13.5685C1.54351 13.9797 1.70858 14.3685 1.96997 14.6898L7.54213 21.5157C7.7408 21.7624 7.99547 21.9581 8.28498 22.0866C8.57449 22.2151 8.89048 22.2727 9.20671 22.2545C9.88305 22.2182 10.4937 21.8564 10.883 21.2615L22.4578 2.62037C22.4596 2.61728 22.4616 2.61419 22.4637 2.61114C22.5723 2.44439 22.537 2.11393 22.3129 1.90633C22.2513 1.84932 22.1787 1.80552 22.0996 1.77763C22.0204 1.74974 21.9364 1.73834 21.8527 1.74415C21.7689 1.74996 21.6873 1.77284 21.6128 1.81139C21.5382 1.84994 21.4724 1.90335 21.4192 1.96831C21.4151 1.97342 21.4108 1.97845 21.4064 1.9834L9.73309 15.1725C9.68868 15.2227 9.63473 15.2636 9.57438 15.2927C9.51404 15.3219 9.4485 15.3388 9.38158 15.3424C9.31465 15.346 9.24768 15.3363 9.18454 15.3138C9.1214 15.2913 9.06336 15.2565 9.01379 15.2114L5.13963 11.6859C4.73727 11.3171 4.21137 11.1123 3.66552 11.1119Z" fill="#C6A26E"/>
</svg>
