<svg width="25" height="24" viewBox="0 0 25 24" fill="none" xmlns="http://www.w3.org/2000/svg">
<path d="M12.3125 23.0625C12.2759 23.0625 12.2388 23.0599 12.2015 23.0544C11.9144 23.0113 11.6774 22.8062 11.594 22.5278L7.094 7.52775C7.01487 7.26375 7.08706 6.97725 7.28225 6.78206C7.47781 6.58688 7.766 6.51431 8.02794 6.59381L23.0279 11.0938C23.3062 11.1772 23.5113 11.4143 23.5546 11.7013C23.5976 11.9888 23.4704 12.2753 23.2288 12.4363L19.4902 14.9288L23.3431 18.7821C23.6362 19.0751 23.6362 19.5497 23.3431 19.8426L20.3431 22.8426C20.0501 23.1356 19.5755 23.1356 19.2826 22.8426L15.4293 18.9896L12.9369 22.7282C12.7963 22.9391 12.5608 23.0625 12.3125 23.0625ZM15.3125 17.0625C15.5107 17.0625 15.7014 17.1409 15.8428 17.2822L19.8125 21.252L21.7518 19.3125L17.7822 15.3428C17.6232 15.1838 17.5441 14.9623 17.5662 14.7384C17.5882 14.5151 17.7095 14.3128 17.8966 14.1883L21.0702 12.0728L8.9315 8.43112L12.5731 20.5699L14.6887 17.3962C14.8132 17.2091 15.0153 17.0878 15.2388 17.0659C15.2634 17.0636 15.2879 17.0625 15.3125 17.0625ZM5.34275 4.84275C5.63581 4.54969 5.63581 4.07513 5.34275 3.78225L3.84275 2.28225C3.54969 1.98919 3.07512 1.98919 2.78225 2.28225C2.48937 2.57531 2.48919 3.04987 2.78225 3.34275L4.28225 4.84275C4.42869 4.98919 4.6205 5.0625 4.8125 5.0625C5.0045 5.0625 5.19631 4.98919 5.34275 4.84275ZM4.8125 7.3125C4.8125 6.89831 4.47669 6.5625 4.0625 6.5625H1.8125C1.39831 6.5625 1.0625 6.89831 1.0625 7.3125C1.0625 7.72669 1.39831 8.0625 1.8125 8.0625H4.0625C4.47669 8.0625 4.8125 7.72669 4.8125 7.3125ZM3.84275 12.3428L5.34275 10.8427C5.63581 10.5497 5.63581 10.0751 5.34275 9.78225C5.04969 9.48938 4.57513 9.48919 4.28225 9.78225L2.78225 11.2823C2.48919 11.5753 2.48919 12.0499 2.78225 12.3428C2.92869 12.4892 3.1205 12.5625 3.3125 12.5625C3.5045 12.5625 3.69631 12.4892 3.84275 12.3428ZM11.3427 4.84275L12.8428 3.34275C13.1358 3.04969 13.1358 2.57512 12.8428 2.28225C12.5497 1.98937 12.0751 1.98919 11.7823 2.28225L10.2823 3.78225C9.98919 4.07531 9.98919 4.54987 10.2823 4.84275C10.4287 4.98919 10.6205 5.0625 10.8125 5.0625C11.0045 5.0625 11.1963 4.98919 11.3427 4.84275ZM8.5625 3.5625V1.3125C8.5625 0.898312 8.22669 0.5625 7.8125 0.5625C7.39831 0.5625 7.0625 0.898312 7.0625 1.3125V3.5625C7.0625 3.97669 7.39831 4.3125 7.8125 4.3125C8.22669 4.3125 8.5625 3.97669 8.5625 3.5625Z" fill="white"/>
</svg>
