<svg width="20" height="20" viewBox="0 0 20 20" fill="none" xmlns="http://www.w3.org/2000/svg">
<g clip-path="url(#clip0_1_181)">
<path d="M0.976257 19.9999C0.783084 20 0.594241 19.9427 0.433612 19.8354C0.272984 19.7281 0.147787 19.5756 0.0738587 19.3971C-6.99545e-05 19.2186 -0.0194095 19.0223 0.0182865 18.8328C0.0559824 18.6433 0.14902 18.4693 0.285632 18.3327L18.3325 0.285868C18.5157 0.102703 18.7641 -0.000198364 19.0231 -0.000198364C19.2822 -0.000198364 19.5306 0.102703 19.7138 0.285868C19.8969 0.469033 19.9998 0.717458 19.9998 0.976493C19.9998 1.23553 19.8969 1.48395 19.7138 1.66712L1.66688 19.714C1.57627 19.8048 1.46861 19.8768 1.3501 19.9259C1.23158 19.9749 1.10453 20.0001 0.976257 19.9999Z" fill="#C5A26E"/>
<path d="M19.0231 19.9999C18.8948 20.0001 18.7678 19.9749 18.6492 19.9259C18.5307 19.8768 18.4231 19.8048 18.3325 19.714L0.285578 1.66712C0.102413 1.48395 -0.000488281 1.23553 -0.000488281 0.976493C-0.000488281 0.717458 0.102413 0.469033 0.285578 0.285868C0.468743 0.102703 0.717168 -0.000198364 0.976203 -0.000198364C1.23524 -0.000198364 1.48366 0.102703 1.66683 0.285868L19.7137 18.3327C19.8503 18.4693 19.9433 18.6433 19.981 18.8328C20.0187 19.0223 19.9994 19.2186 19.9255 19.3971C19.8515 19.5756 19.7263 19.7281 19.5657 19.8354C19.4051 19.9427 19.2162 20 19.0231 19.9999Z" fill="#C5A26E"/>
</g>
<defs>
<clipPath id="clip0_1_181">
<rect width="20" height="20" fill="white"/>
</clipPath>
</defs>
</svg>
