<svg width="32" height="32" viewBox="0 0 32 32" fill="none" xmlns="http://www.w3.org/2000/svg">
<g clip-path="url(#clip0_1_3318)">
<path d="M1.56279 32C1.25372 32 0.951566 31.9084 0.694561 31.7367C0.437556 31.565 0.237241 31.321 0.118955 31.0354C0.000669323 30.7499 -0.0302739 30.4357 0.0300396 30.1326C0.0903531 29.8294 0.239214 29.551 0.457792 29.3325L29.3328 0.457462C29.6259 0.164398 30.0233 -0.000244141 30.4378 -0.000244141C30.8522 -0.000244141 31.2497 0.164398 31.5428 0.457462C31.8359 0.750526 32.0005 1.14801 32.0005 1.56246C32.0005 1.97692 31.8359 2.3744 31.5428 2.66746L2.66779 31.5425C2.52281 31.6877 2.35056 31.8029 2.16093 31.8815C1.9713 31.96 1.76803 32.0002 1.56279 32Z" fill="#C6A26E"/>
<path d="M30.4377 32C30.2325 32.0002 30.0292 31.96 29.8396 31.8815C29.6499 31.8029 29.4777 31.6877 29.3327 31.5425L0.457706 2.66746C0.164642 2.3744 0 1.97692 0 1.56246C0 1.14801 0.164642 0.750526 0.457706 0.457462C0.75077 0.164398 1.14825 -0.000244141 1.56271 -0.000244141C1.97716 -0.000244141 2.37464 0.164398 2.66771 0.457462L31.5427 29.3325C31.7613 29.551 31.9101 29.8294 31.9705 30.1326C32.0308 30.4357 31.9998 30.7499 31.8815 31.0354C31.7633 31.321 31.5629 31.565 31.3059 31.7367C31.0489 31.9084 30.7468 32 30.4377 32Z" fill="#C6A26E"/>
</g>
<defs>
<clipPath id="clip0_1_3318">
<rect width="32" height="32" fill="white"/>
</clipPath>
</defs>
</svg>
