<svg width="30" height="30" viewBox="0 0 30 30" fill="none" xmlns="http://www.w3.org/2000/svg">
<g clip-path="url(#clip0_1_512)">
<path d="M29.0291 10.6072L28.0916 8.26342C28.0687 8.20625 28.0348 8.15415 27.9918 8.11009C27.9488 8.06603 27.8976 8.03087 27.841 8.00662C27.7844 7.98237 27.7236 7.9695 27.662 7.96875C27.6005 7.96801 27.5394 7.9794 27.4822 8.00227L25.5422 8.77828C25.3304 8.43161 25.0184 8.15738 24.6474 7.99184C24.559 7.95256 24.4681 7.91957 24.3751 7.89311V6.5625H26.2501C26.3273 6.5625 26.4032 6.54345 26.4713 6.50704C26.5393 6.47063 26.5973 6.41799 26.6401 6.35379L28.3759 3.75H28.5938C28.7182 3.75 28.8374 3.70061 28.9253 3.61271C29.0132 3.5248 29.0626 3.40557 29.0626 3.28125V1.40625C29.0626 1.28193 29.0132 1.1627 28.9253 1.07479C28.8374 0.986886 28.7182 0.9375 28.5938 0.9375H1.40634C1.28202 0.9375 1.16279 0.986886 1.07488 1.07479C0.986974 1.1627 0.937588 1.28193 0.937588 1.40625V3.28125C0.937588 3.40557 0.986974 3.5248 1.07488 3.61271C1.16279 3.70061 1.28202 3.75 1.40634 3.75H1.62425L3.36009 6.35379C3.40289 6.41799 3.46089 6.47063 3.52892 6.50704C3.59696 6.54345 3.67293 6.5625 3.75009 6.5625H5.62509V7.89311C5.5321 7.91959 5.4411 7.95258 5.35274 7.99184C4.98176 8.15738 4.66975 8.43161 4.45796 8.77828L2.51792 8.00227C2.46076 7.9794 2.39966 7.96801 2.3381 7.96875C2.27654 7.9695 2.21573 7.98237 2.15914 8.00662C2.10255 8.03087 2.0513 8.06603 2.0083 8.11009C1.9653 8.15415 1.93141 8.20625 1.90855 8.26342L0.971045 10.6072C0.948175 10.6643 0.936788 10.7254 0.937535 10.787C0.938281 10.8486 0.951148 10.9094 0.975399 10.966C0.99965 11.0225 1.03481 11.0738 1.07887 11.1168C1.12293 11.1598 1.17503 11.1937 1.2322 11.2165L3.15103 11.9841C3.14816 12.5517 3.36249 13.0988 3.75009 13.5134V26.177L1.11858 28.2238C1.0415 28.2838 0.985077 28.3663 0.957192 28.4599C0.929308 28.5535 0.931356 28.6535 0.96305 28.7459C0.994745 28.8382 1.0545 28.9184 1.13398 28.9752C1.21345 29.032 1.30867 29.0625 1.40634 29.0625H28.5938C28.6915 29.0625 28.7867 29.032 28.8662 28.9752C28.9457 28.9184 29.0054 28.8382 29.0371 28.7459C29.0688 28.6535 29.0709 28.5535 29.043 28.4599C29.0151 28.3663 28.9587 28.2838 28.8816 28.2238L26.2501 26.177V13.5938H26.1697C26.3863 13.3856 26.5583 13.1355 26.6751 12.8588C26.792 12.582 26.8513 12.2844 26.8494 11.984L28.7682 11.2164C28.8836 11.1702 28.9759 11.0801 29.0248 10.9658C29.0737 10.8516 29.0752 10.7226 29.0291 10.6072ZM24.872 9.5352C24.8782 9.55207 24.8853 9.56858 24.8933 9.58465L25.8181 11.4343C26.1102 12.2711 25.7001 12.9339 25.1384 13.1585C25.1264 13.1633 25.1145 13.1687 25.1029 13.1745L23.6631 13.8945L21.7075 9.59227L23.1601 8.8657C23.5554 8.71178 23.9469 8.70521 24.2645 8.8473C24.5438 8.97252 24.754 9.21029 24.872 9.5352ZM6.62423 5.625H4.62618L5.62509 4.12629L6.62423 5.625ZM6.50118 3.75H8.49923L7.50009 5.24871L6.50118 3.75ZM9.37509 4.12629L10.3742 5.625H8.37618L9.37509 4.12629ZM10.2509 3.75H12.249L11.2501 5.24871L10.2509 3.75ZM13.1251 4.12629L14.1242 5.625H12.1262L13.1251 4.12629ZM14.0009 3.75H15.999L15.0001 5.24871L14.0009 3.75ZM16.8751 4.12629L17.8742 5.625H15.8762L16.8751 4.12629ZM17.7509 3.75H19.749L18.7501 5.24871L17.7509 3.75ZM20.6251 4.12629L21.6242 5.625H19.6262L20.6251 4.12629ZM21.5009 3.75H23.499L22.5001 5.24871L21.5009 3.75ZM24.3751 4.12629L25.3742 5.625H23.3762L24.3751 4.12629ZM26.2501 5.24871L25.2509 3.75H27.249L26.2501 5.24871ZM1.87509 1.875H28.1251V2.8125H1.87509V1.875ZM2.75095 3.75H4.74899L3.75009 5.24871L2.75095 3.75ZM23.4376 6.5625V7.83111C23.2171 7.86169 23.0012 7.91917 22.7948 8.00227C22.7827 8.00707 22.7708 8.0124 22.7592 8.01826L20.8842 8.95576C20.7757 9.01002 20.6924 9.10423 20.6519 9.21859C20.6115 9.33296 20.6169 9.45856 20.6671 9.569L23.0108 14.7253C23.0481 14.8072 23.1081 14.8767 23.1838 14.9254C23.2595 14.9741 23.3476 15 23.4376 15V23.9426C23.4376 24.4862 23.4376 25.1628 24.0821 25.6785C24.0838 25.6799 24.0855 25.6812 24.0872 25.6825L24.9368 26.3434L22.7989 28.125H7.20126L5.06312 26.3434L5.91272 25.6825C5.91442 25.6812 5.91612 25.6799 5.91776 25.6785C6.5623 25.1629 6.5623 24.4862 6.5623 23.9426V15C6.6523 15 6.74039 14.9741 6.81607 14.9254C6.89174 14.8767 6.95179 14.8072 6.98903 14.7253L9.33278 9.569C9.38301 9.4586 9.38848 9.33302 9.34806 9.21866C9.30763 9.1043 9.22444 9.01007 9.11599 8.95576L7.24099 8.01826C7.22927 8.0124 7.21741 8.00707 7.20542 8.00227C6.99894 7.91917 6.78305 7.86169 6.56259 7.83111V6.5625H23.4376ZM25.3126 27.2508V28.125H24.2638L25.3126 27.2508ZM5.73642 28.125H4.68759V27.2508L5.73642 28.125ZM5.12815 9.5352C5.24622 9.21029 5.45628 8.9727 5.73565 8.84754C6.05329 8.70545 6.44464 8.71207 6.84003 8.86594L8.29269 9.5925L6.33712 13.8947L4.89724 13.1745C4.88552 13.1687 4.8738 13.1633 4.86173 13.1585C4.30011 12.9339 3.89001 12.2711 4.18204 11.4343L5.10683 9.58465C5.11486 9.56858 5.12198 9.55207 5.12815 9.5352ZM2.60499 9.04688L4.04054 9.62109L3.33085 11.0404C3.33003 11.0419 3.3295 11.0437 3.32868 11.0453L2.01571 10.5201L2.60499 9.04688ZM4.68759 14.1179L5.62509 14.5866V23.9426C5.62509 24.5276 5.58495 24.7431 5.33464 24.9445L4.68759 25.4478V14.1179ZM3.75009 27.3647V28.125H2.77251L3.75009 27.3647ZM27.2277 28.125H26.2501V27.3647L27.2277 28.125ZM24.6655 24.9445C24.4152 24.7431 24.3751 24.5276 24.3751 23.9426V14.5866L25.3126 14.1179V25.4478L24.6655 24.9445ZM26.6715 11.0453C26.6707 11.0437 26.6701 11.0419 26.6693 11.0404L25.9597 9.62109L27.3952 9.04688L27.9845 10.5201L26.6715 11.0453Z" fill="#C6A26E"/>
<path d="M8.4375 19.2188V20.9842C8.29001 21.1159 8.172 21.2772 8.09122 21.4576C8.01044 21.6381 7.9687 21.8336 7.96875 22.0312V24.375C7.84443 24.375 7.7252 24.4244 7.63729 24.5123C7.54939 24.6002 7.5 24.7194 7.5 24.8438C7.5 24.9681 7.54939 25.0873 7.63729 25.1752C7.7252 25.2631 7.84443 25.3125 7.96875 25.3125H22.0312C22.1556 25.3125 22.2748 25.2631 22.3627 25.1752C22.4506 25.0873 22.5 24.9681 22.5 24.8438C22.5 24.7194 22.4506 24.6002 22.3627 24.5123C22.2748 24.4244 22.1556 24.375 22.0312 24.375V22.0312C22.0313 21.8336 21.9896 21.6381 21.9088 21.4576C21.828 21.2772 21.71 21.1159 21.5625 20.9842V19.2188C21.5618 18.5974 21.3146 18.0016 20.8753 17.5622C20.4359 17.1229 19.8401 16.8757 19.2188 16.875H10.7812C10.1599 16.8757 9.56413 17.1229 9.12474 17.5622C8.68535 18.0016 8.4382 18.5974 8.4375 19.2188ZM8.90625 24.375V22.0312C8.90639 21.907 8.95582 21.7878 9.0437 21.6999C9.13158 21.6121 9.25072 21.5626 9.375 21.5625H9.84375V22.5C9.84375 22.6243 9.89314 22.7435 9.98104 22.8315C10.069 22.9194 10.1882 22.9688 10.3125 22.9688H19.6875C19.8118 22.9688 19.931 22.9194 20.019 22.8315C20.1069 22.7435 20.1562 22.6243 20.1562 22.5V21.5625H20.625C20.7493 21.5626 20.8684 21.6121 20.9563 21.6999C21.0442 21.7878 21.0936 21.907 21.0938 22.0312V24.375H8.90625ZM9.375 19.2188C9.37543 18.8459 9.52373 18.4885 9.78736 18.2249C10.051 17.9612 10.4084 17.8129 10.7812 17.8125H19.2188C19.5916 17.8129 19.949 17.9612 20.2126 18.2249C20.4763 18.4885 20.6246 18.8459 20.625 19.2188V20.625H19.6875C19.5632 20.625 19.444 20.6744 19.356 20.7623C19.2681 20.8502 19.2188 20.9694 19.2188 21.0938V22.0312H10.7812V21.0938C10.7812 20.9694 10.7319 20.8502 10.644 20.7623C10.556 20.6744 10.4368 20.625 10.3125 20.625H9.375V19.2188Z" fill="#C6A26E"/>
</g>
<defs>
<clipPath id="clip0_1_512">
<rect width="30" height="30" fill="white"/>
</clipPath>
</defs>
</svg>
