<svg width="24" height="24" viewBox="0 0 24 24" fill="none" xmlns="http://www.w3.org/2000/svg">
<path fill-rule="evenodd" clip-rule="evenodd" d="M2.26884 4.51884C2.76113 4.02656 3.42881 3.75 4.125 3.75H15C15.4142 3.75 15.75 4.08579 15.75 4.5C15.75 4.91421 15.4142 5.25 15 5.25H4.125C3.82663 5.25 3.54048 5.36853 3.3295 5.5795C3.11853 5.79048 3 6.07663 3 6.375V17.625C3 17.9234 3.11853 18.2095 3.3295 18.4205C3.54048 18.6315 3.82663 18.75 4.125 18.75H19.8155C20.1138 18.75 20.4 18.6315 20.611 18.4205C20.8219 18.2095 20.9405 17.9234 20.9405 17.625V11.2031C20.9405 10.7889 21.2763 10.4531 21.6905 10.4531C22.1047 10.4531 22.4405 10.7889 22.4405 11.2031V17.625C22.4405 18.3212 22.1639 18.9889 21.6716 19.4812C21.1793 19.9734 20.5117 20.25 19.8155 20.25H4.125C3.42881 20.25 2.76113 19.9734 2.26884 19.4812C1.77656 18.9889 1.5 18.3212 1.5 17.625V6.375C1.5 5.67881 1.77656 5.01113 2.26884 4.51884Z" fill="#C6A26E"/>
<path fill-rule="evenodd" clip-rule="evenodd" d="M4.65802 7.03958C4.91232 6.71262 5.38353 6.65372 5.71049 6.90802L12.0069 11.8052L15.6263 9.07314C15.9569 8.8236 16.4272 8.8893 16.6768 9.21991C16.9263 9.55051 16.8606 10.0208 16.53 10.2704L12.4519 13.3486C12.1813 13.5529 11.8072 13.5502 11.5396 13.342L4.78958 8.09205C4.46262 7.83775 4.40372 7.36654 4.65802 7.03958Z" fill="#C6A26E"/>
<path d="M20.2477 8.24995C21.489 8.24995 22.4953 7.24364 22.4953 6.0023C22.4953 4.76095 21.489 3.75464 20.2477 3.75464C19.0063 3.75464 18 4.76095 18 6.0023C18 7.24364 19.0063 8.24995 20.2477 8.24995Z" fill="#C6A26E"/>
<path d="M20.2501 8.99995C19.6572 8.99995 19.0777 8.82414 18.5847 8.49476C18.0917 8.16537 17.7075 7.6972 17.4806 7.14945C17.2537 6.6017 17.1944 5.99897 17.31 5.41748C17.4257 4.83599 17.7112 4.30186 18.1304 3.88263C18.5497 3.4634 19.0838 3.1779 19.6653 3.06224C20.2468 2.94657 20.8495 3.00594 21.3973 3.23282C21.945 3.45971 22.4132 3.84393 22.7426 4.33689C23.0719 4.82985 23.2478 5.40942 23.2478 6.0023C23.2471 6.79713 22.9311 7.55924 22.3691 8.12127C21.807 8.68331 21.0449 8.99933 20.2501 8.99995ZM20.2501 4.50464C19.9533 4.50418 19.6631 4.59176 19.4161 4.7563C19.1691 4.92084 18.9765 5.15494 18.8626 5.42899C18.7487 5.70304 18.7187 6.00471 18.7763 6.29584C18.8339 6.58696 18.9766 6.85446 19.1863 7.06447C19.396 7.27448 19.6632 7.41758 19.9543 7.47564C20.2453 7.53371 20.547 7.50414 20.8212 7.39068C21.0955 7.27722 21.3299 7.08496 21.4948 6.83824C21.6597 6.59151 21.7478 6.30141 21.7478 6.00464C21.7478 5.60722 21.59 5.22604 21.3092 4.94481C21.0284 4.66357 20.6475 4.50526 20.2501 4.50464Z" fill="#C6A26E"/>
</svg>
