<svg width="30" height="30" viewBox="0 0 30 30" fill="none" xmlns="http://www.w3.org/2000/svg">
<path d="M28.4934 9.0319C28.4909 9.00208 28.4852 8.974 28.4761 8.94598C28.47 8.92708 28.4641 8.90908 28.4553 8.89162C28.4425 8.86612 28.4261 8.84392 28.4082 8.82178C28.396 8.8066 28.3852 8.79142 28.3709 8.77828C28.3501 8.75926 28.3257 8.74534 28.3007 8.73106C28.2833 8.72104 28.2677 8.70934 28.2487 8.70214C28.2442 8.70034 28.241 8.6968 28.2364 8.69524C22.9837 6.89242 18.9151 4.63762 15.7978 1.80202C15.3525 1.3969 14.625 1.40776 14.1891 1.82824C11.5233 4.40002 7.4571 6.6469 1.758 8.69716C1.7544 8.69848 1.75188 8.7013 1.74828 8.70268C1.73082 8.70958 1.7166 8.72098 1.70046 8.73022C1.6743 8.74522 1.64868 8.75974 1.62708 8.77978C1.61334 8.79244 1.60338 8.8075 1.59162 8.82208C1.57326 8.8447 1.55634 8.86732 1.5435 8.8933C1.53498 8.91046 1.52964 8.92828 1.5237 8.94688C1.51458 8.9752 1.50864 9.00346 1.50624 9.03358C1.50534 9.04426 1.5 9.05338 1.5 9.06424V11.8736C1.5 12.0891 1.67466 12.2637 1.89018 12.2637H2.1243V28.1046C2.1243 28.3202 2.29896 28.4948 2.51448 28.4948H5.32368C5.5392 28.4948 5.71386 28.3202 5.71386 28.1046V26.6066L8.24274 25.0613H21.7574L24.2861 26.6066V28.1046C24.2861 28.3202 24.4608 28.4948 24.6763 28.4948H27.4855C27.701 28.4948 27.8757 28.3202 27.8757 28.1046V12.2636H28.1098C28.3253 12.2636 28.5 12.089 28.5 11.8734V9.06412C28.4999 9.05266 28.4944 9.04306 28.4934 9.0319ZM27.7196 11.4833H27.4855H24.6763H21.8671H8.13282H5.32362H2.51442H2.2803V9.4543H27.7196V11.4833ZM26.877 20.1452L25.0664 21.9557V18.3345L26.877 20.1452ZM25.3272 17.4919L27.0953 15.7239V19.2599L25.3272 17.4919ZM27.0953 21.0303V24.5663L25.3272 22.7983L27.0953 21.0303ZM25.0664 23.6409L26.8771 25.4514L25.0664 27.2619V23.6409ZM25.0664 16.6493V12.7161L27.0331 14.6826L25.0664 16.6493ZM3.12288 25.4514L4.9335 23.6409V27.2619L3.12288 25.4514ZM2.9046 15.7239L4.67268 17.4919L2.9046 19.2599V15.7239ZM2.9046 21.0303L4.67268 22.7983L2.9046 24.5663V21.0303ZM3.12288 20.1452L4.9335 18.3345V21.9557L3.12288 20.1452ZM2.96682 14.6826L4.9335 12.7161V16.6493L2.96682 14.6826ZM14.7308 2.38978C14.8804 2.2459 15.1216 2.24164 15.2728 2.37928C18.0446 4.9006 21.538 6.97036 25.9078 8.67406H4.03104C8.79954 6.7882 12.3121 4.72336 14.7308 2.38978ZM4.28256 12.2636L2.9046 13.6415V12.2636H4.28256ZM2.9046 26.3366L4.28256 27.7145H2.9046V26.3366ZM5.7138 12.2636H7.74264V24.4524L5.7138 25.6922V12.2636ZM8.523 24.281V12.2636H21.4768V24.281H8.523ZM22.2572 24.4524V12.2636H24.286V25.6922L22.2572 24.4524ZM25.7173 27.7145L27.0953 26.3366V27.7145H25.7173ZM27.0953 13.6415L25.7173 12.2636H27.0953V13.6415Z" fill="#C6A26E"/>
<path d="M23.2714 27.7144H6.72807C6.51255 27.7144 6.33789 27.889 6.33789 28.1045C6.33789 28.3201 6.51255 28.4947 6.72807 28.4947H23.2714C23.4869 28.4947 23.6616 28.3201 23.6616 28.1045C23.6616 27.889 23.4869 27.7144 23.2714 27.7144Z" fill="#C6A26E"/>
</svg>
