<svg width="20" height="21" viewBox="0 0 20 21" fill="none" xmlns="http://www.w3.org/2000/svg">
<path d="M18.9956 6.52135C18.9939 6.50147 18.9901 6.48275 18.9841 6.46407C18.98 6.45147 18.976 6.43947 18.9702 6.42783C18.9617 6.41083 18.9508 6.39603 18.9388 6.38127C18.9306 6.37115 18.9234 6.36103 18.914 6.35227C18.9001 6.33959 18.8838 6.33031 18.8671 6.32079C18.8555 6.31411 18.8452 6.30631 18.8325 6.30151C18.8295 6.30031 18.8273 6.29795 18.8242 6.29691C15.3225 5.09503 12.6101 3.59183 10.5319 1.70143C10.235 1.43135 9.75 1.43859 9.4594 1.71891C7.6822 3.43343 4.9714 4.93135 1.172 6.29819C1.1696 6.29907 1.16792 6.30095 1.16552 6.30187C1.15388 6.30647 1.1444 6.31407 1.13364 6.32023C1.1162 6.33023 1.09912 6.33991 1.08472 6.35327C1.07556 6.36171 1.06892 6.37175 1.06108 6.38147C1.04884 6.39655 1.03756 6.41163 1.029 6.42895C1.02332 6.44039 1.01976 6.45227 1.0158 6.46467C1.00972 6.48355 1.00576 6.50239 1.00416 6.52247C1.00356 6.52959 1 6.53567 1 6.54291V8.41579C1 8.55947 1.11644 8.67591 1.26012 8.67591H1.4162V19.2365C1.4162 19.3802 1.53264 19.4966 1.67632 19.4966H3.54912C3.6928 19.4966 3.80924 19.3802 3.80924 19.2365V18.2378L5.49516 17.2076H14.5049L16.1908 18.2378V19.2365C16.1908 19.3802 16.3072 19.4966 16.4509 19.4966H18.3237C18.4674 19.4966 18.5838 19.3802 18.5838 19.2365V8.67583H18.7399C18.8836 8.67583 19 8.55939 19 8.41571V6.54283C19 6.53519 18.9963 6.52879 18.9956 6.52135ZM18.4797 8.15559H18.3236H16.4508H14.578H5.42188H3.54908H1.67628H1.5202V6.80295H18.4797V8.15559ZM17.918 13.9302L16.7109 15.1372V12.7231L17.918 13.9302ZM16.8848 12.1613L18.0635 10.9827V13.34L16.8848 12.1613ZM18.0635 14.5203V16.8776L16.8848 15.6989L18.0635 14.5203ZM16.711 16.2607L17.918 17.4677L16.711 18.6747V16.2607ZM16.711 11.5996V8.97747L18.0221 10.2885L16.711 11.5996ZM2.08192 17.4677L3.289 16.2607V18.6747L2.08192 17.4677ZM1.9364 10.9827L3.11512 12.1613L1.9364 13.34V10.9827ZM1.9364 14.5203L3.11512 15.6989L1.9364 16.8776V14.5203ZM2.08192 13.9302L3.289 12.7231V15.1372L2.08192 13.9302ZM1.97788 10.2885L3.289 8.97747V11.5996L1.97788 10.2885ZM9.82052 2.09327C9.92028 1.99735 10.081 1.99451 10.1818 2.08627C12.0297 3.76715 14.3587 5.14699 17.2718 6.28279H2.68736C5.86636 5.02555 8.20804 3.64899 9.82052 2.09327ZM2.85504 8.67583L1.9364 9.59439V8.67583H2.85504ZM1.9364 18.0578L2.85504 18.9764H1.9364V18.0578ZM3.8092 8.67583H5.16176V16.8017L3.8092 17.6282V8.67583ZM5.682 16.6874V8.67583H14.3179V16.6874H5.682ZM14.8381 16.8017V8.67583H16.1907V17.6282L14.8381 16.8017ZM17.1449 18.9764L18.0635 18.0578V18.9764H17.1449ZM18.0635 9.59439L17.1449 8.67583H18.0635V9.59439Z" fill="#C6A26E"/>
<path d="M15.5146 18.9763H4.48571C4.34203 18.9763 4.22559 19.0928 4.22559 19.2364C4.22559 19.3801 4.34203 19.4966 4.48571 19.4966H15.5146C15.6583 19.4966 15.7747 19.3801 15.7747 19.2364C15.7747 19.0928 15.6583 18.9763 15.5146 18.9763Z" fill="#C6A26E"/>
</svg>
