<svg width="30" height="31" viewBox="0 0 30 31" fill="none" xmlns="http://www.w3.org/2000/svg">
<path d="M28.1578 21.6819C28.1081 21.6406 22.4934 17.6225 20.97 17.8859C20.2378 18.0153 19.8188 18.5141 18.9797 19.5144C18.8447 19.6756 18.5194 20.0609 18.2681 20.3356C17.7378 20.1629 17.2205 19.9523 16.7203 19.7056C14.138 18.4484 12.0516 16.362 10.7944 13.7797C10.5477 13.2795 10.3371 12.7622 10.1644 12.2319C10.44 11.9797 10.8263 11.6544 10.9913 11.5156C11.9859 10.6812 12.4847 10.2622 12.6141 9.52906C12.8794 8.01125 8.85938 2.39187 8.81813 2.34125C8.63505 2.08162 8.39662 1.86587 8.12003 1.70958C7.84345 1.55329 7.53561 1.46036 7.21875 1.4375C5.58938 1.4375 0.9375 7.47125 0.9375 8.48844C0.9375 8.5475 1.02281 14.5512 8.42625 22.0822C15.9488 29.4772 21.9525 29.5625 22.0116 29.5625C23.0287 29.5625 29.0625 24.9106 29.0625 23.2812C29.0397 22.9643 28.9466 22.6563 28.7902 22.3797C28.6337 22.1031 28.4177 21.8648 28.1578 21.6819ZM21.9084 27.6819C21.0891 27.6144 16.0509 26.9497 9.75187 20.7612C3.53156 14.4284 2.88375 9.37625 2.81906 8.59344C4.04792 6.66467 5.53199 4.91096 7.23094 3.38C7.26844 3.4175 7.31813 3.47375 7.38188 3.54688C8.68484 5.32553 9.80726 7.22963 10.7325 9.23094C10.4316 9.53363 10.1136 9.81879 9.78 10.085C9.26268 10.4792 8.78764 10.9259 8.3625 11.4181L8.13469 11.7369L8.20219 12.1222C8.40059 12.9816 8.70446 13.8132 9.10687 14.5981C10.5486 17.5588 12.941 19.9508 15.9019 21.3922C16.6866 21.7952 17.5183 22.0994 18.3778 22.2978L18.7631 22.3653L19.0819 22.1375C19.5759 21.7105 20.0246 21.2336 20.4206 20.7144C20.7141 20.3638 21.1069 19.8959 21.255 19.7638C23.262 20.6881 25.171 21.8119 26.9531 23.1181C27.0309 23.1838 27.0853 23.2344 27.1219 23.2672C25.5912 24.9667 23.8374 26.4511 21.9084 27.68V27.6819Z" fill="#C6A26E"/>
</svg>
