<svg width="24" height="24" viewBox="0 0 24 24" fill="none" xmlns="http://www.w3.org/2000/svg">
<g clip-path="url(#clip0_1_793)">
<path d="M15.3118 23.9998C15.2524 23.9998 15.1928 23.9995 15.1327 23.999C13.2832 23.9826 11.3862 23.4319 9.49446 22.3621C8.00905 21.5221 6.5159 20.3562 5.05659 18.8968C1.73131 15.5716 0.030328 12.1972 0.000938499 8.86759C-0.0177171 6.75745 0.222087 3.68753 2.50978 1.39979C3.4037 0.505866 4.51891 0.00886882 5.64992 0.00038476L5.68001 0.000244141H5.68784C7.05672 0.000244141 8.32778 0.749232 9.00585 1.95641L9.77026 3.31728L9.78329 3.34442C10.1719 4.15392 10.3621 4.77569 10.4001 5.36048C10.4544 6.19703 10.1843 6.92094 9.59735 7.51225L7.47319 9.71402C7.78893 10.5874 8.59688 12.4704 10.1322 14.0091C11.6521 15.5256 13.4845 16.2992 14.3525 16.6036L16.4818 14.3936C17.0785 13.7981 17.7863 13.5139 18.5847 13.5486C19.1982 13.5753 19.8449 13.7807 20.6815 14.2142L20.7093 14.2292L22.0439 14.9789C23.2534 15.6583 24.0029 16.9328 24 18.3053L23.9999 18.3383C23.9914 19.4658 23.4945 20.581 22.6005 21.4749C21.607 22.4684 20.3542 23.176 18.8768 23.5779C17.8345 23.8615 16.6666 23.9998 15.3118 23.9998ZM5.68718 1.87517C5.68587 1.87517 5.6846 1.87517 5.68329 1.87517L5.6636 1.87527C5.02852 1.88005 4.37914 2.18201 3.83559 2.72555C2.04625 4.51489 1.86012 7.07843 1.87578 8.85099C1.90071 11.6718 3.41692 14.6056 6.38231 17.571C9.37854 20.5673 12.3282 22.0992 15.1493 22.1241C16.9155 22.1397 19.4719 21.9519 21.2747 20.149C21.8183 19.6055 22.1202 18.9562 22.125 18.3207L22.1251 18.298C22.1265 17.6074 21.7436 16.9606 21.1257 16.6135L19.8051 15.8718C18.5031 15.1998 18.1291 15.4005 17.8123 15.7146L14.9239 18.7127L14.3975 18.5808C14.27 18.5488 11.2464 17.77 8.80711 15.3354L8.80585 15.3342C6.37701 12.9006 5.53615 9.84086 5.50152 9.71177L5.36422 9.19968L8.26408 6.19403C8.53811 5.91945 8.75114 5.53757 8.10575 4.18237L7.3712 2.87461C7.02466 2.25789 6.37969 1.87517 5.68718 1.87517ZM20.7051 3.2952C18.5803 1.17044 15.7553 0.000291014 12.7504 0.000291014V1.87522C17.9196 1.87522 22.1251 6.08069 22.1251 11.2499H24C24 8.24497 22.8299 5.41992 20.7051 3.2952ZM12.7504 7.49997V9.3749C13.7843 9.3749 14.6253 10.216 14.6253 11.2498H16.5003C16.5003 9.18215 14.8181 7.49997 12.7504 7.49997ZM12.7504 3.7501V5.62504C15.8519 5.62504 18.3752 8.14832 18.3752 11.2498H20.2501C20.2501 7.11448 16.8858 3.7501 12.7504 3.7501Z" fill="#C6A26E"/>
</g>
<defs>
<clipPath id="clip0_1_793">
<rect width="24" height="24" fill="white"/>
</clipPath>
</defs>
</svg>
