<svg width="60" height="60" viewBox="0 0 60 60" fill="none" xmlns="http://www.w3.org/2000/svg">
<circle cx="30" cy="30" r="30" fill="#FFD79D" fill-opacity="0.37"/>
<path d="M36.3089 30.6213L24.9339 41.9963C24.8526 42.0783 24.7558 42.1434 24.6492 42.1878C24.5426 42.2322 24.4282 42.2551 24.3127 42.2551C24.1972 42.2551 24.0828 42.2322 23.9762 42.1878C23.8696 42.1434 23.7728 42.0783 23.6914 41.9963C23.6094 41.9149 23.5443 41.8182 23.4999 41.7115C23.4555 41.6049 23.4326 41.4906 23.4326 41.375C23.4326 41.2595 23.4555 41.1452 23.4999 41.0385C23.5443 40.9319 23.6094 40.8351 23.6914 40.7538L34.4539 30L23.6914 19.2463C23.5267 19.0815 23.4341 18.8581 23.4341 18.625C23.4341 18.5097 23.4568 18.3954 23.501 18.2888C23.5451 18.1822 23.6099 18.0854 23.6914 18.0038C23.773 17.9222 23.8699 17.8575 23.9765 17.8133C24.0831 17.7692 24.1973 17.7465 24.3127 17.7465C24.5457 17.7465 24.7692 17.839 24.9339 18.0038L36.3089 29.3788C36.391 29.4601 36.456 29.5569 36.5005 29.6635C36.5449 29.7702 36.5678 29.8845 36.5678 30C36.5678 30.1156 36.5449 30.2299 36.5005 30.3365C36.456 30.4432 36.391 30.5399 36.3089 30.6213Z" fill="#C6A26E"/>
</svg>
