<svg width="40" height="40" viewBox="0 0 40 40" fill="none" xmlns="http://www.w3.org/2000/svg">
<path d="M29.0125 20.8875L12.7625 37.1375C12.6463 37.2546 12.5081 37.3476 12.3558 37.4111C12.2034 37.4746 12.0401 37.5072 11.875 37.5072C11.71 37.5072 11.5466 37.4746 11.3943 37.4111C11.242 37.3476 11.1037 37.2546 10.9875 37.1375C10.8704 37.0213 10.7774 36.883 10.7139 36.7307C10.6505 36.5784 10.6178 36.415 10.6178 36.25C10.6178 36.085 10.6505 35.9216 10.7139 35.7693C10.7774 35.6169 10.8704 35.4787 10.9875 35.3625L26.3625 20L10.9875 4.63749C10.7522 4.40211 10.6199 4.08286 10.6199 3.74999C10.6199 3.58516 10.6524 3.42195 10.7155 3.26968C10.7785 3.1174 10.871 2.97904 10.9875 2.86249C11.1041 2.74594 11.2425 2.65349 11.3947 2.59041C11.547 2.52734 11.7102 2.49487 11.875 2.49487C12.2079 2.49487 12.5272 2.62711 12.7625 2.86249L29.0125 19.1125C29.1297 19.2287 29.2227 19.3669 29.2862 19.5193C29.3496 19.6716 29.3823 19.835 29.3823 20C29.3823 20.165 29.3496 20.3284 29.2862 20.4807C29.2227 20.633 29.1297 20.7713 29.0125 20.8875Z" fill="#C6A26E"/>
</svg>
