<svg width="60" height="60" viewBox="0 0 60 60" fill="none" xmlns="http://www.w3.org/2000/svg">
<circle cx="30" cy="30" r="30" transform="matrix(-1 0 0 1 60 0)" fill="#FFD79D" fill-opacity="0.37"/>
<path d="M23.6911 30.6213L35.0661 41.9963C35.1474 42.0783 35.2442 42.1434 35.3508 42.1878C35.4574 42.2322 35.5718 42.2551 35.6873 42.2551C35.8028 42.2551 35.9172 42.2322 36.0238 42.1878C36.1304 42.1434 36.2272 42.0783 36.3086 41.9963C36.3906 41.9149 36.4557 41.8182 36.5001 41.7115C36.5445 41.6049 36.5674 41.4906 36.5674 41.375C36.5674 41.2595 36.5445 41.1452 36.5001 41.0385C36.4557 40.9319 36.3906 40.8351 36.3086 40.7538L25.5461 30L36.3086 19.2463C36.4733 19.0815 36.5659 18.8581 36.5659 18.625C36.5659 18.5097 36.5432 18.3954 36.499 18.2888C36.4549 18.1822 36.3901 18.0854 36.3086 18.0038C36.227 17.9222 36.1301 17.8575 36.0235 17.8133C35.9169 17.7692 35.8027 17.7465 35.6873 17.7465C35.4543 17.7465 35.2308 17.839 35.0661 18.0038L23.6911 29.3788C23.609 29.4601 23.544 29.5569 23.4995 29.6635C23.4551 29.7702 23.4322 29.8845 23.4322 30C23.4322 30.1156 23.4551 30.2299 23.4995 30.3365C23.544 30.4432 23.609 30.5399 23.6911 30.6213Z" fill="#C6A26E"/>
</svg>
