<svg width="40" height="40" viewBox="0 0 40 40" fill="none" xmlns="http://www.w3.org/2000/svg">
<path d="M10.9876 20.8875L27.2376 37.1375C27.3538 37.2546 27.492 37.3476 27.6444 37.4111C27.7967 37.4746 27.9601 37.5072 28.1251 37.5072C28.2901 37.5072 28.4535 37.4746 28.6058 37.4111C28.7581 37.3476 28.8964 37.2546 29.0126 37.1375C29.1297 37.0213 29.2227 36.883 29.2862 36.7307C29.3497 36.5784 29.3823 36.415 29.3823 36.25C29.3823 36.085 29.3497 35.9216 29.2862 35.7693C29.2227 35.6169 29.1297 35.4787 29.0126 35.3625L13.6376 20L29.0126 4.63749C29.248 4.40211 29.3802 4.08286 29.3802 3.74999C29.3802 3.58516 29.3477 3.42195 29.2847 3.26968C29.2216 3.1174 29.1291 2.97904 29.0126 2.86249C28.896 2.74594 28.7577 2.65349 28.6054 2.59041C28.4531 2.52734 28.2899 2.49487 28.1251 2.49487C27.7922 2.49487 27.473 2.62711 27.2376 2.86249L10.9876 19.1125C10.8704 19.2287 10.7774 19.3669 10.714 19.5193C10.6505 19.6716 10.6178 19.835 10.6178 20C10.6178 20.165 10.6505 20.3284 10.714 20.4807C10.7774 20.633 10.8704 20.7713 10.9876 20.8875Z" fill="#C6A26E"/>
</svg>
