<svg width="24" height="24" viewBox="0 0 24 24" fill="none" xmlns="http://www.w3.org/2000/svg">
<g clip-path="url(#clip0_1_799)">
<path d="M21.9669 5.32315L21.6079 5.43697L19.6957 5.60733L19.1556 6.46982L18.7637 6.3453L17.242 4.97326L17.0212 4.25974L16.7255 3.49885L15.7691 2.64095L14.6407 2.42017L14.6148 2.93659L15.7202 4.01528L16.2611 4.6524L15.653 4.9702L15.1579 4.82429L14.4161 4.51489L14.4413 3.91673L13.4681 3.51642L13.1449 4.92284L12.164 5.14515L12.2611 5.92972L13.5391 6.1757L13.7599 4.92208L14.8149 5.07792L15.3054 5.36516H16.0922L16.6308 6.44385L18.0586 7.89228L17.9539 8.45531L16.8027 8.30863L14.8134 9.31321L13.381 11.0313L13.1946 11.7922H12.6805L11.7225 11.3506L10.792 11.7922L11.0235 12.7739L11.4284 12.3071L12.1403 12.2849L12.0907 13.1665L12.6805 13.3392L13.2695 14.0008L14.2313 13.7303L15.3298 13.9037L16.6056 14.2468L17.2427 14.3216L18.3229 15.5477L20.4077 16.7739L19.0594 19.3499L17.6361 20.0115L17.096 21.4836L15.0365 22.8587L14.8172 23.6516C20.0823 22.3835 23.999 17.6539 23.999 11.9992C23.9975 9.52941 23.2488 7.23071 21.9669 5.32315Z" fill="#C6A26E"/>
<path d="M13.3803 18.2712L12.5064 16.6509L13.3085 14.9794L12.5064 14.7395L11.6057 13.835L9.61026 13.3873L8.94793 12.0015V12.8243H8.6561L6.93647 10.4928V8.57756L5.67596 6.5279L3.67443 6.88466H2.32608L1.6477 6.44005L2.51324 5.75403L1.64999 5.95342C0.6095 7.73035 0.00292969 9.79223 0.00292969 12.0008C0.00292969 18.6264 5.37421 24 12.0006 24C12.511 24 13.0113 23.9549 13.5064 23.8954L13.3811 22.4416C13.3811 22.4416 13.9319 20.2827 13.9319 20.2093C13.9311 20.1352 13.3803 18.2712 13.3803 18.2712Z" fill="#C6A26E"/>
<path d="M4.46136 3.86937L6.59275 3.57219L7.57518 3.03361L8.68061 3.35218L10.4468 3.25439L11.0519 2.30328L11.9342 2.44843L14.0771 2.24752L14.6676 1.59664L15.5003 1.04049L16.6783 1.21772L17.1076 1.15279C15.5561 0.42246 13.8296 0 11.9999 0C8.27572 0 4.9457 1.69748 2.74707 4.36287H2.75318L4.46136 3.86937ZM12.5072 1.19328L13.7326 0.518717L14.5194 0.973262L13.3804 1.84034L12.2925 1.94958L11.8028 1.63178L12.5072 1.19328ZM8.8777 1.29183L9.41858 1.51719L10.1267 1.29183L10.5125 1.96027L8.8777 2.38961L8.09161 1.92972C8.09161 1.92972 8.86013 1.43468 8.8777 1.29183Z" fill="#C6A26E"/>
</g>
<defs>
<clipPath id="clip0_1_799">
<rect width="24" height="24" fill="white"/>
</clipPath>
</defs>
</svg>
