<svg width="24" height="24" viewBox="0 0 24 24" fill="none" xmlns="http://www.w3.org/2000/svg">
<g clip-path="url(#clip0_1_49)">
<path d="M16.8744 6.10767H9.38549C9.19119 6.10767 9.03369 6.26517 9.03369 6.45946C9.03369 6.65376 9.19119 6.81126 9.38549 6.81126H16.8744C17.0687 6.81126 17.2262 6.65376 17.2262 6.45946C17.2262 6.26512 17.0687 6.10767 16.8744 6.10767Z" fill="#C6A26E"/>
<path d="M7.74847 6.10767H6.56225C6.36795 6.10767 6.21045 6.26517 6.21045 6.45946C6.21045 6.65376 6.3679 6.81126 6.56225 6.81126H7.74847C7.94277 6.81126 8.10027 6.65376 8.10027 6.45946C8.10027 6.26517 7.94277 6.10767 7.74847 6.10767Z" fill="#C6A26E"/>
<path d="M10.2419 16.8911H6.56225C6.36795 16.8911 6.21045 17.0486 6.21045 17.2429C6.21045 17.4373 6.36795 17.5947 6.56225 17.5947H10.2419C10.4362 17.5947 10.5937 17.4372 10.5937 17.2429C10.5937 17.0486 10.4362 16.8911 10.2419 16.8911Z" fill="#C6A26E"/>
<path d="M11.7183 13.2966H6.56225C6.36795 13.2966 6.21045 13.4541 6.21045 13.6484C6.21045 13.8428 6.36795 14.0002 6.56225 14.0002H11.7183C11.9126 14.0002 12.0701 13.8427 12.0701 13.6484C12.0701 13.4541 11.9126 13.2966 11.7183 13.2966Z" fill="#C6A26E"/>
<path d="M14.2282 9.70215H6.56225C6.36795 9.70215 6.21045 9.85965 6.21045 10.0539C6.21045 10.2482 6.36795 10.4057 6.56225 10.4057H14.2282C14.4224 10.4058 14.58 10.2483 14.58 10.0539C14.58 9.8596 14.4224 9.70215 14.2282 9.70215Z" fill="#C6A26E"/>
<path d="M20.8859 2.5083H6.34662C5.05878 2.5083 4.01107 3.55605 4.01107 4.8439V18.6863H0.35177C0.257879 18.6863 0.167832 18.7238 0.101785 18.7906C0.0356913 18.8573 -0.000965051 18.9477 1.93259e-05 19.0416C0.0138944 20.4384 1.01772 21.4918 2.33501 21.4918H16.8743H16.9186C18.2064 21.4918 19.2541 20.444 19.2541 19.1562V14.8932C19.2541 14.6989 19.0966 14.5415 18.9023 14.5415C18.708 14.5415 18.5505 14.699 18.5505 14.8933V19.1562C18.5505 20.0561 17.8184 20.7882 16.9186 20.7882H16.8743C15.9541 20.7882 15.2528 20.0343 15.2429 19.0346C15.2409 18.8417 15.084 18.6863 14.8911 18.6863H4.71486V4.84385C4.71486 3.94394 5.44695 3.2119 6.34677 3.2119H19.2167C19.2064 3.22244 19.1966 3.23351 19.1865 3.24429C19.1742 3.25736 19.1618 3.2703 19.1498 3.28362C19.1371 3.29772 19.1249 3.31221 19.1125 3.32665C19.1007 3.34047 19.0887 3.35416 19.0772 3.36827C19.0652 3.3829 19.0538 3.3979 19.0422 3.4128C19.0309 3.42724 19.0196 3.44154 19.0087 3.45626C18.9975 3.47135 18.9868 3.48677 18.976 3.50215C18.9654 3.51724 18.9546 3.53224 18.9443 3.54757C18.9339 3.56308 18.924 3.57893 18.914 3.59472C18.904 3.61043 18.8939 3.62599 18.8843 3.64193C18.8747 3.65796 18.8656 3.67432 18.8563 3.69058C18.8471 3.70676 18.8376 3.72283 18.8288 3.73929C18.8199 3.75574 18.8116 3.77257 18.8031 3.7893C18.7946 3.80599 18.7859 3.82254 18.7779 3.83941C18.7697 3.85638 18.7623 3.87368 18.7546 3.89083C18.7469 3.90794 18.7389 3.92491 18.7317 3.94221C18.7243 3.95969 18.7177 3.97751 18.7107 3.99518C18.7039 4.01262 18.6968 4.02991 18.6904 4.04754C18.6838 4.06563 18.6779 4.08405 18.6718 4.10238C18.6659 4.12001 18.6596 4.13744 18.6541 4.15526C18.6483 4.17401 18.6433 4.19309 18.6379 4.21207C18.633 4.22979 18.6276 4.24737 18.623 4.26527C18.618 4.28496 18.6138 4.30493 18.6092 4.3248C18.6053 4.34229 18.6009 4.35968 18.5973 4.3773C18.5931 4.39798 18.5897 4.41888 18.5861 4.43974C18.5831 4.45699 18.5796 4.47405 18.577 4.4914C18.5736 4.51366 18.5712 4.53621 18.5684 4.55866C18.5664 4.57488 18.564 4.59091 18.5623 4.60723C18.5598 4.63235 18.5582 4.65776 18.5565 4.68312C18.5556 4.69704 18.5541 4.71087 18.5534 4.72484C18.5514 4.76426 18.5504 4.80396 18.5504 4.8439V4.96198V7.96634C18.5504 8.16069 18.7079 8.31814 18.9022 8.31814C19.0965 8.31814 19.254 8.16064 19.254 7.96634V5.31378H22.8729C22.9668 5.31378 23.0568 5.27623 23.1228 5.20953C23.1889 5.14277 23.2256 5.0524 23.2246 4.95851C23.2107 3.56163 22.2069 2.5083 20.8859 2.5083ZM14.5638 19.3899C14.5686 19.4264 14.5742 19.4624 14.5805 19.4982C14.5825 19.5102 14.5851 19.522 14.5873 19.5339C14.5918 19.5576 14.5962 19.5813 14.6013 19.6046C14.6043 19.6186 14.6077 19.6324 14.6109 19.6463C14.6158 19.6673 14.6207 19.6884 14.6261 19.7092C14.6298 19.7237 14.6339 19.7382 14.6379 19.7526C14.6434 19.7724 14.6489 19.7921 14.6548 19.8117C14.6592 19.8264 14.6639 19.8409 14.6685 19.8555C14.6746 19.8745 14.681 19.8934 14.6875 19.9122C14.6925 19.9267 14.6976 19.9411 14.7029 19.9555C14.7098 19.9741 14.7168 19.9926 14.7241 20.011C14.7296 20.025 14.7351 20.0389 14.7408 20.0528C14.7486 20.0714 14.7566 20.0897 14.7647 20.1081C14.7705 20.1213 14.7763 20.1345 14.7824 20.1475C14.7913 20.1668 14.8006 20.1857 14.81 20.2046C14.8158 20.2163 14.8214 20.2281 14.8274 20.2397C14.8388 20.2619 14.8508 20.2837 14.8628 20.3055C14.8672 20.3134 14.8713 20.3214 14.8758 20.3293C14.8925 20.3587 14.9098 20.3877 14.9277 20.4162C14.9318 20.4228 14.9363 20.4292 14.9405 20.4358C14.9544 20.4576 14.9685 20.4793 14.9831 20.5005C14.9899 20.5103 14.9969 20.5198 15.0038 20.5295C15.0163 20.5472 15.0289 20.5649 15.0419 20.5822C15.0497 20.5926 15.0578 20.6027 15.0657 20.613C15.0783 20.6292 15.0909 20.6453 15.1039 20.6611C15.1124 20.6714 15.1211 20.6816 15.1298 20.6919C15.1427 20.7071 15.1558 20.7222 15.1691 20.7371C15.1781 20.7472 15.1872 20.7571 15.1963 20.7669C15.2028 20.7739 15.2091 20.7812 15.2157 20.7882H2.33496C1.52758 20.7882 0.88863 20.2076 0.737458 19.3899H14.5638ZM19.2713 4.61009C19.2714 4.6077 19.2717 4.60521 19.272 4.60277C19.2736 4.59204 19.2756 4.5814 19.2774 4.57076C19.2799 4.55576 19.2825 4.54076 19.2855 4.52585C19.2877 4.51451 19.2902 4.50326 19.2927 4.49201C19.2958 4.47804 19.299 4.46412 19.3024 4.45029C19.3053 4.43866 19.3084 4.42709 19.3115 4.41555C19.3151 4.40238 19.3188 4.38921 19.3227 4.37618C19.3262 4.36437 19.3299 4.35265 19.3337 4.34098C19.3378 4.32851 19.342 4.31613 19.3464 4.30376C19.3506 4.2918 19.3548 4.27985 19.3593 4.26804C19.3637 4.25637 19.3684 4.24484 19.3731 4.23326C19.378 4.22107 19.3829 4.20893 19.3882 4.19688C19.3928 4.18615 19.3977 4.17555 19.4026 4.16496C19.4084 4.15244 19.4141 4.13984 19.4201 4.12751C19.4246 4.11832 19.4295 4.10932 19.4342 4.10023C19.4411 4.08673 19.4479 4.07323 19.4552 4.05996C19.4581 4.0548 19.4612 4.04984 19.464 4.04473C19.4965 3.98721 19.5322 3.93171 19.5712 3.87879C19.5715 3.87827 19.5719 3.8778 19.5722 3.87729C19.5848 3.86032 19.5978 3.84368 19.611 3.82718C19.6131 3.82455 19.6151 3.82188 19.6172 3.81926C19.6301 3.80332 19.6434 3.78771 19.6569 3.77229C19.6593 3.76943 19.6618 3.76652 19.6644 3.76366C19.678 3.74819 19.6921 3.73305 19.7064 3.7181C19.7087 3.71566 19.711 3.71318 19.7134 3.71074C19.7282 3.69546 19.7433 3.68041 19.7587 3.66569C19.7604 3.66405 19.7621 3.66241 19.7639 3.66073C19.7801 3.64535 19.7966 3.63026 19.8135 3.61554C19.814 3.61502 19.8146 3.61455 19.8152 3.61404C20.0306 3.4264 20.2958 3.29407 20.5884 3.2396C20.5885 3.23955 20.5887 3.23955 20.5888 3.23951C20.6128 3.23505 20.637 3.23111 20.6613 3.22774C20.6627 3.22755 20.6642 3.22736 20.6657 3.22718C20.6889 3.22399 20.7122 3.22127 20.7357 3.21907C20.7392 3.21874 20.7429 3.21855 20.7465 3.21827C20.768 3.2164 20.7895 3.2148 20.8113 3.21377C20.8239 3.21321 20.8365 3.21311 20.8492 3.21279C20.8628 3.21246 20.8763 3.21185 20.89 3.21185C21.6974 3.21185 22.3363 3.7924 22.4875 4.61009H19.2713Z" fill="#C6A26E"/>
<path d="M23.9998 8.992C23.9998 8.98793 23.9997 8.98385 23.9996 8.97972C23.9981 8.94663 23.9922 8.91475 23.9822 8.88457C23.9817 8.88307 23.9816 8.88152 23.981 8.88007C23.9806 8.87885 23.9799 8.87772 23.9795 8.8765C23.974 8.86108 23.9676 8.84608 23.9601 8.83174C23.9592 8.82996 23.9581 8.82832 23.9571 8.82654C23.9502 8.81388 23.9425 8.80174 23.9341 8.79007C23.9323 8.78758 23.9306 8.785 23.9288 8.78257C23.9196 8.77038 23.9096 8.75885 23.8988 8.74797C23.8965 8.74558 23.894 8.74338 23.8916 8.74108C23.8815 8.73133 23.8708 8.72219 23.8595 8.71371C23.858 8.71258 23.8566 8.71132 23.8551 8.71019C23.8424 8.701 23.829 8.6928 23.8152 8.6853C23.8125 8.68385 23.8099 8.68254 23.8071 8.68118C23.793 8.67405 23.7786 8.66754 23.7634 8.66233C23.7634 8.66229 23.7633 8.66224 23.7632 8.66224C23.7481 8.65708 23.7325 8.65319 23.7166 8.65005C23.7131 8.64935 23.7096 8.64874 23.706 8.64818C23.6901 8.64555 23.674 8.64358 23.6575 8.64316C20.7138 8.56699 16.8754 9.2756 14.9348 11.4909C14.0855 12.4604 13.6936 13.6904 13.3147 14.8799C13.2837 14.9773 13.2527 15.0746 13.2214 15.1717C13.2201 15.1758 13.2188 15.1799 13.2177 15.1841L12.6231 17.2958C12.5705 17.4828 12.6794 17.6771 12.8664 17.7298C12.8983 17.7388 12.9304 17.743 12.9619 17.743C13.1155 17.743 13.2567 17.6416 13.3004 17.4864L13.8518 15.5279C14.526 15.212 15.0688 15.0642 15.802 14.8648C16.1823 14.7613 16.6134 14.6442 17.1351 14.4837C18.2629 14.1368 20.4265 12.6856 21.4222 11.6081C22.2931 10.6656 23.0259 9.96518 23.8724 9.26613C23.8734 9.26533 23.8742 9.26435 23.8751 9.26351C23.8875 9.25305 23.8992 9.24194 23.91 9.2299C23.9106 9.22915 23.9113 9.22849 23.912 9.22779C23.9226 9.21574 23.9323 9.2028 23.9412 9.1893C23.9429 9.18682 23.9445 9.18433 23.9461 9.1818C23.9629 9.15494 23.9763 9.12574 23.9854 9.09461C23.9863 9.09166 23.9872 9.08875 23.988 9.08575C23.9921 9.07047 23.9954 9.05491 23.9974 9.03888C23.9975 9.03822 23.9975 9.03761 23.9976 9.03696C23.9989 9.02608 23.9998 9.01507 24.0001 9.00391C24.0003 8.99988 23.9999 8.99594 23.9998 8.992ZM15.4641 11.9545C16.283 11.0197 17.5381 10.315 19.1945 9.86013C19.6397 9.73788 20.1101 9.63644 20.595 9.55638C19.363 10.1538 18.1851 10.9021 17.5269 11.3418C16.4645 12.0515 15.3178 12.9124 14.4709 13.678C14.7215 13.0432 15.0245 12.4564 15.4641 11.9545ZM20.9055 11.1305C19.9364 12.1792 17.8434 13.5297 16.9283 13.8111C16.4177 13.9681 15.9925 14.0838 15.6174 14.1858C15.2779 14.2781 14.9692 14.3622 14.6638 14.4591C14.8004 14.3283 14.9605 14.1816 15.1493 14.017C15.909 13.3543 16.8921 12.6121 17.9177 11.9269C19.6934 10.7407 21.3004 9.90799 22.4794 9.54701C21.9673 10.0186 21.4637 10.5263 20.9055 11.1305Z" fill="#C6A26E"/>
</g>
<defs>
<clipPath id="clip0_1_49">
<rect width="24" height="24" fill="white"/>
</clipPath>
</defs>
</svg>
