<svg width="24" height="24" viewBox="0 0 24 24" fill="none" xmlns="http://www.w3.org/2000/svg">
<g clip-path="url(#clip0_1_82)">
<path d="M6.12905 3.47752C6.09961 3.28557 5.91994 3.15338 5.72799 3.18329L4.07771 3.43679C4.02783 3.44443 3.98016 3.46275 3.93798 3.49046L3.90615 3.51136L2.79024 1.81262C2.62112 1.55518 2.36185 1.37898 2.06017 1.31649C1.75862 1.2542 1.45061 1.31279 1.19312 1.48192L0.51967 1.92432C-0.0117045 2.2734 -0.16011 2.98983 0.189014 3.5214L1.30492 5.22014L1.28364 5.23411C1.24145 5.26181 1.20573 5.29828 1.17892 5.34099L0.283561 6.76664C0.180248 6.93112 0.229842 7.14825 0.394326 7.25161C0.452498 7.28812 0.517138 7.30551 0.581076 7.30551C0.698029 7.30551 0.81245 7.24715 0.879247 7.14084L1.32498 6.43106L1.42084 6.82889V6.82903C1.45815 6.98344 1.56859 7.11056 1.71634 7.16887C1.77423 7.19175 1.83512 7.20304 1.89582 7.20304C1.98999 7.20304 2.08356 7.1759 2.16432 7.12284L5.31113 5.05566C5.44397 4.96847 5.52629 4.82156 5.53135 4.6628C5.53636 4.50399 5.46361 4.35216 5.33663 4.25663L5.00368 4.00622L5.83482 3.87858C6.02682 3.8491 6.15858 3.66952 6.12905 3.47752ZM0.776966 3.13519C0.640794 2.92787 0.698638 2.6484 0.905966 2.51227L1.57942 2.06987C1.65367 2.02107 1.73865 1.99585 1.82546 1.99585C1.85612 1.99585 1.88692 1.99899 1.91762 2.00532C2.03528 2.0297 2.13639 2.09841 2.20234 2.19887L3.31595 3.8941L1.89062 4.83042L0.776966 3.13519ZM2.03326 6.36736L1.87014 5.69053L4.11343 4.21693L4.66988 4.63542L2.03326 6.36736Z" fill="#C6A26E"/>
<path d="M23.4804 1.9241L22.8069 1.48169C22.5494 1.31257 22.2415 1.25393 21.9399 1.31627C21.6382 1.37875 21.379 1.55496 21.2098 1.81239L20.0962 3.50767L20.0697 3.49023C20.0275 3.46253 19.9798 3.4442 19.9299 3.43656L18.2797 3.18306C18.0879 3.15358 17.9081 3.28534 17.8786 3.4773C17.8492 3.6693 17.9809 3.84887 18.1729 3.87836L18.9977 4.00506L18.6634 4.25645C18.5364 4.35194 18.4636 4.50376 18.4687 4.66258C18.4738 4.82134 18.5561 4.96825 18.6889 5.05548L21.8358 7.12266C21.9165 7.17568 22.0101 7.20287 22.1042 7.20287C22.1649 7.20287 22.2258 7.19162 22.2837 7.1687C22.4315 7.11034 22.5418 6.98326 22.5792 6.82885V6.82871L22.6772 6.42217L23.1284 7.14062C23.1952 7.24702 23.3097 7.30529 23.4266 7.30529C23.4905 7.30529 23.5552 7.2879 23.6134 7.25138C23.7778 7.14807 23.8275 6.93095 23.7241 6.76642L22.8287 5.34071C22.8018 5.29797 22.7661 5.26154 22.724 5.23384L22.6974 5.2164L23.8111 3.52112C24.1602 2.98966 24.0118 2.27322 23.4804 1.9241ZM21.9668 6.36718L19.3302 4.6352L19.8902 4.21403L20.0039 4.28875L20.0131 4.29475L22.131 5.686L21.9668 6.36718ZM23.2231 3.13497L22.1095 4.83025L20.6841 3.89392L21.7978 2.19864C21.8637 2.09819 21.9648 2.02947 22.0825 2.0051C22.2001 1.98077 22.3202 2.00369 22.4206 2.06964L23.0941 2.51205C23.3015 2.64822 23.3593 2.92769 23.2231 3.13497Z" fill="#C6A26E"/>
<path d="M21.5278 8.07801C21.3357 8.04675 21.1553 8.17692 21.1241 8.36864L19.2858 19.6631C19.278 19.6577 19.2697 19.6524 19.2618 19.647C19.2471 19.6371 19.2325 19.6271 19.2173 19.6172C19.2056 19.6096 19.1936 19.6021 19.1816 19.5946C19.1662 19.5849 19.1508 19.5753 19.1349 19.5658C19.1223 19.5582 19.1094 19.5507 19.0964 19.5432C19.0803 19.5339 19.064 19.5245 19.0474 19.5153C19.0339 19.5078 19.0202 19.5003 19.0064 19.4928C18.9895 19.4837 18.9724 19.4746 18.955 19.4656C18.9474 19.4616 18.94 19.4576 18.9323 19.4537L12.4892 12.7949L18.5165 6.56573C18.6516 6.42614 18.648 6.20348 18.5083 6.06844C18.3687 5.93334 18.146 5.93705 18.011 6.07664L11.9998 12.2892L5.99231 6.08058C5.85731 5.94098 5.63461 5.93728 5.49502 6.07237C5.35538 6.20742 5.35172 6.43008 5.48681 6.56967L11.5104 12.7949L5.06728 19.4537C5.0596 19.4576 5.05224 19.4616 5.04464 19.4656C5.02721 19.4746 5.0101 19.4837 4.99317 19.4928C4.97939 19.5003 4.96566 19.5078 4.95221 19.5153C4.93556 19.5245 4.9193 19.5339 4.90313 19.5432C4.89019 19.5507 4.8773 19.5582 4.86469 19.5658C4.8488 19.5753 4.83338 19.585 4.818 19.5946C4.806 19.6021 4.79396 19.6096 4.78228 19.6172C4.7671 19.6271 4.75238 19.637 4.73775 19.647C4.72988 19.6524 4.72153 19.6577 4.7138 19.6631L2.87565 8.37037C2.84448 8.1786 2.66396 8.04862 2.47201 8.07975C2.28029 8.11092 2.15016 8.29167 2.18138 8.48339L4.15064 20.5818C4.18036 21.2462 5.00864 21.7795 6.61467 22.1675C8.05729 22.516 9.9697 22.7079 11.9998 22.7079C14.0298 22.7079 15.9422 22.516 17.3848 22.1675C18.9909 21.7795 19.8191 21.2461 19.8489 20.5818L21.8185 8.48165C21.8497 8.28993 21.7195 8.10923 21.5278 8.07801ZM11.9998 13.3007L17.4556 18.9392C17.4368 18.9346 17.4176 18.93 17.3987 18.9254C17.394 18.9243 17.3895 18.9231 17.3848 18.922C17.3804 18.921 17.3759 18.9199 17.3716 18.9189C17.3344 18.9099 17.2969 18.9011 17.259 18.8923C17.2522 18.8908 17.2454 18.8892 17.2386 18.8876C17.1991 18.8786 17.1593 18.8696 17.1191 18.8608C17.1125 18.8593 17.106 18.8579 17.0994 18.8565C17.06 18.8479 17.0202 18.8394 16.9801 18.831C16.9714 18.8291 16.9628 18.8274 16.9541 18.8255C16.9169 18.8178 16.8794 18.8102 16.8417 18.8027C16.8288 18.8001 16.8158 18.7975 16.8028 18.7949C16.7696 18.7884 16.7361 18.7819 16.7025 18.7755C16.684 18.772 16.6655 18.7684 16.6469 18.765C16.6188 18.7597 16.5905 18.7545 16.562 18.7493C16.5369 18.7447 16.5116 18.7402 16.4862 18.7357C16.4643 18.7318 16.4423 18.728 16.4202 18.7241C16.3876 18.7185 16.3549 18.7129 16.322 18.7074C16.3068 18.7048 16.2914 18.7023 16.2761 18.6998C16.2353 18.6931 16.1944 18.6865 16.1532 18.6799C16.1456 18.6787 16.138 18.6776 16.1305 18.6764C15.2737 18.5419 14.3183 18.451 13.3113 18.4088C13.135 18.4014 12.957 18.3955 12.7777 18.3911C12.7771 18.3911 12.7765 18.3911 12.7758 18.3911C12.7173 18.3896 12.6586 18.3884 12.5998 18.3873C12.5936 18.3872 12.5875 18.387 12.5814 18.3869C12.5284 18.3859 12.4753 18.3852 12.4221 18.3845C12.4104 18.3844 12.3987 18.3841 12.3868 18.384C12.3365 18.3834 12.2859 18.3829 12.2353 18.3826C12.2212 18.3825 12.2072 18.3823 12.1931 18.3822C12.1288 18.3818 12.0643 18.3816 11.9997 18.3816C11.9351 18.3816 11.8707 18.3818 11.8063 18.3822C11.7922 18.3823 11.7782 18.3825 11.7641 18.3826C11.7135 18.3829 11.663 18.3834 11.6126 18.384C11.6008 18.3841 11.589 18.3844 11.5773 18.3845C11.5241 18.3852 11.471 18.3859 11.418 18.3869C11.4119 18.387 11.4058 18.3872 11.3997 18.3873C11.3408 18.3884 11.2821 18.3896 11.2236 18.3911C11.2229 18.3911 11.2223 18.3911 11.2217 18.3911C10.9178 18.3986 10.6177 18.4103 10.3226 18.4264C9.44985 18.4737 8.62139 18.5583 7.86895 18.6764C7.86136 18.6776 7.85376 18.6788 7.84617 18.68C7.80497 18.6865 7.76404 18.6931 7.72331 18.6998C7.70798 18.7024 7.6927 18.7049 7.67742 18.7075C7.64451 18.713 7.61175 18.7186 7.57917 18.7242C7.55704 18.728 7.53506 18.7319 7.51312 18.7358C7.48776 18.7403 7.4625 18.7448 7.43733 18.7494C7.40887 18.7545 7.38061 18.7597 7.35244 18.765C7.33387 18.7685 7.31536 18.772 7.29689 18.7755C7.26323 18.7819 7.22976 18.7884 7.19653 18.795C7.18355 18.7976 7.17061 18.8001 7.15772 18.8027C7.11994 18.8103 7.08248 18.8179 7.04526 18.8256C7.03659 18.8274 7.02797 18.8292 7.0193 18.831C6.97917 18.8394 6.93942 18.8479 6.89995 18.8565C6.89339 18.858 6.88683 18.8594 6.88026 18.8608C6.84009 18.8697 6.80025 18.8786 6.76078 18.8877C6.75394 18.8892 6.74714 18.8908 6.74034 18.8924C6.70251 18.9011 6.66497 18.91 6.6278 18.9189C6.62344 18.9199 6.61894 18.921 6.61458 18.9221C6.60989 18.9232 6.60539 18.9244 6.6007 18.9255C6.58177 18.9301 6.56255 18.9346 6.5438 18.9393L11.9998 13.3007ZM17.2196 21.4837C15.8295 21.8195 13.9757 22.0045 11.9998 22.0045C10.0238 22.0045 8.16998 21.8195 6.77991 21.4837C5.19891 21.1018 4.85269 20.6764 4.85269 20.5448C4.85269 20.4654 4.97911 20.2792 5.4256 20.0601C5.42803 20.059 5.43052 20.0582 5.43291 20.0569C5.62224 19.9648 5.84489 19.8777 6.09628 19.7964C6.09661 19.7963 6.09694 19.7961 6.09727 19.796C6.19402 19.7648 6.29531 19.7343 6.40036 19.7048C6.41114 19.7018 6.42216 19.6988 6.43308 19.6957C6.47517 19.6841 6.51792 19.6725 6.56128 19.6611C6.57202 19.6583 6.58261 19.6555 6.59348 19.6527C7.89801 19.3144 9.74788 19.1047 11.7193 19.0864C11.7325 19.0863 11.7457 19.0862 11.7589 19.0861C11.839 19.0854 11.9193 19.085 11.9998 19.085C12.0803 19.085 12.1605 19.0854 12.2407 19.0861C12.2539 19.0862 12.2671 19.0863 12.2803 19.0864C14.2517 19.1047 16.1016 19.3144 17.4061 19.6527C17.4169 19.6555 17.4276 19.6583 17.4383 19.6611C17.4817 19.6725 17.5244 19.6841 17.5665 19.6957C17.5774 19.6988 17.5884 19.7018 17.5992 19.7048C17.7042 19.7343 17.8055 19.7648 17.9023 19.796C17.9026 19.7961 17.9029 19.7963 17.9033 19.7964C18.1547 19.8777 18.3773 19.9647 18.5666 20.0569C18.569 20.0581 18.5715 20.059 18.574 20.0601C19.0204 20.2791 19.1469 20.4654 19.1469 20.5448C19.1468 20.6764 18.8006 21.1018 17.2196 21.4837Z" fill="#C6A26E"/>
</g>
<defs>
<clipPath id="clip0_1_82">
<rect width="24" height="24" fill="white"/>
</clipPath>
</defs>
</svg>
