<svg width="24" height="24" viewBox="0 0 24 24" fill="none" xmlns="http://www.w3.org/2000/svg">
<path d="M22.2813 11.7555L19.2188 8.333C18.745 7.80375 18.0663 7.5 17.3558 7.5H14.6143L14.8738 5.1655C14.9208 4.742 14.7845 4.31675 14.5003 3.9995C14.216 3.68225 13.8088 3.5 13.3828 3.5H3C2.724 3.5 2.5 3.724 2.5 4C2.5 4.276 2.724 4.5 3 4.5H13.3828C13.5268 4.5 13.659 4.559 13.7553 4.6665C13.8513 4.774 13.8958 4.91175 13.8798 5.05525L12.5525 17H9.788C9.776 16.399 9.57575 15.8438 9.20125 15.3973C8.7155 14.8185 8.00175 14.5 7.191 14.5C5.722 14.5 4.31425 15.5892 3.86325 17H1.5C1.224 17 1 17.224 1 17.5C1 17.776 1.224 18 1.5 18H3.712C3.724 18.601 3.92425 19.1563 4.29875 19.6028C4.7845 20.1815 5.49825 20.5 6.309 20.5C7.778 20.5 9.18575 19.4108 9.63675 18H14.462C14.474 18.601 14.6743 19.1563 15.0488 19.6028C15.5345 20.1815 16.2483 20.5 17.059 20.5C18.528 20.5 19.9358 19.4108 20.3868 18H21.0998C21.8698 18 22.511 17.4225 22.5915 16.657L22.9045 13.6842C22.9783 12.984 22.751 12.281 22.2813 11.7555ZM8.7575 17.413C8.55475 18.564 7.45625 19.5 6.309 19.5C5.799 19.5 5.357 19.308 5.06475 18.96C4.76375 18.6012 4.64925 18.1137 4.74225 17.587C4.94525 16.436 6.04375 15.5 7.191 15.5C7.701 15.5 8.143 15.692 8.43525 16.04C8.736 16.3988 8.8505 16.8863 8.7575 17.413ZM19.5075 17.413C19.3048 18.564 18.2063 19.5 17.059 19.5C16.549 19.5 16.107 19.308 15.8148 18.96C15.5138 18.6012 15.3993 18.1137 15.4923 17.587C15.6953 16.436 16.7938 15.5 17.941 15.5C18.451 15.5 18.893 15.692 19.1853 16.04C19.486 16.3988 19.6005 16.8863 19.5075 17.413ZM21.91 13.5798L21.597 16.5525C21.57 16.8075 21.3565 17 21.0998 17H20.538C20.526 16.399 20.3258 15.8438 19.9513 15.3973C19.4655 14.8185 18.7518 14.5 17.941 14.5C16.472 14.5 15.0643 15.5892 14.6133 17H13.5585L14.5033 8.5H17.3558C17.782 8.5 18.1895 8.68225 18.4738 9L21.5363 12.4222C21.8178 12.7375 21.954 13.1595 21.91 13.5798ZM17.6188 9.662C17.524 9.55875 17.3903 9.5 17.25 9.5H16C15.74 9.5 15.5235 9.69925 15.5018 9.9585L15.2518 12.9585C15.2403 13.098 15.2875 13.2355 15.382 13.3387C15.4768 13.4415 15.61 13.5 15.75 13.5H20C20.1983 13.5 20.378 13.3827 20.4578 13.2015C20.5375 13.0197 20.5025 12.8085 20.3688 12.6622L17.6188 9.662ZM16.2935 12.5L16.46 10.5H17.03L18.8633 12.5H16.2935ZM10.5 7.5H7C6.724 7.5 6.5 7.276 6.5 7C6.5 6.724 6.724 6.5 7 6.5H10.5C10.776 6.5 11 6.724 11 7C11 7.276 10.776 7.5 10.5 7.5ZM4 7.5C3.724 7.5 3.5 7.276 3.5 7C3.5 6.724 3.724 6.5 4 6.5H5C5.276 6.5 5.5 6.724 5.5 7C5.5 7.276 5.276 7.5 5 7.5H4ZM9.5 9.5C9.776 9.5 10 9.724 10 10C10 10.276 9.776 10.5 9.5 10.5H8.5C8.224 10.5 8 10.276 8 10C8 9.724 8.224 9.5 8.5 9.5H9.5ZM3 9.5H6.5C6.776 9.5 7 9.724 7 10C7 10.276 6.776 10.5 6.5 10.5H3C2.724 10.5 2.5 10.276 2.5 10C2.5 9.724 2.724 9.5 3 9.5ZM1.5 13C1.5 12.724 1.724 12.5 2 12.5H8.5C8.776 12.5 9 12.724 9 13C9 13.276 8.776 13.5 8.5 13.5H2C1.724 13.5 1.5 13.276 1.5 13ZM14.25 20C14.25 20.276 14.026 20.5 13.75 20.5H11.5C11.224 20.5 11 20.276 11 20C11 19.724 11.224 19.5 11.5 19.5H13.75C14.026 19.5 14.25 19.724 14.25 20ZM3.5 20C3.5 20.276 3.276 20.5 3 20.5H1.75C1.474 20.5 1.25 20.276 1.25 20C1.25 19.724 1.474 19.5 1.75 19.5H3C3.276 19.5 3.5 19.724 3.5 20Z" fill="#C6A26E"/>
</svg>
