<svg width="24" height="24" viewBox="0 0 24 24" fill="none" xmlns="http://www.w3.org/2000/svg">
<g clip-path="url(#clip0_1_94)">
<path d="M10.544 7.24933C11.1392 7.24933 11.6236 6.76488 11.6236 6.16933C11.6236 5.97508 11.4662 5.81763 11.272 5.81763C11.0778 5.81763 10.9204 5.97508 10.9204 6.16933C10.9027 6.66785 10.1851 6.66761 10.1675 6.16933C10.1675 5.97508 10.0101 5.81763 9.81592 5.81763C9.62171 5.81763 9.46436 5.97508 9.46436 6.16933C9.4644 6.76483 9.94871 7.24933 10.544 7.24933Z" fill="#C6A26E"/>
<path d="M9.81592 5.32372C10.0101 5.32372 10.1675 5.16627 10.1675 4.97202V4.71266C10.1514 4.24696 9.48029 4.24733 9.46436 4.71266V4.97202C9.46436 5.16627 9.62171 5.32372 9.81592 5.32372Z" fill="#C6A26E"/>
<path d="M11.272 5.32372C11.4662 5.32372 11.6235 5.16627 11.6235 4.97202V4.71266C11.6074 4.24696 10.9363 4.24733 10.9204 4.71266V4.97202C10.9204 5.16627 11.0778 5.32372 11.272 5.32372Z" fill="#C6A26E"/>
<path d="M14.1841 3.13891C14.3783 3.13891 14.5356 2.98146 14.5356 2.78721V2.52785C14.5195 2.06214 13.8485 2.06252 13.8325 2.52785V2.78721C13.8325 2.98146 13.9899 3.13891 14.1841 3.13891Z" fill="#C6A26E"/>
<path d="M23.6484 21.84H22.5439V20.7352C22.5439 20.5409 22.3866 20.3835 22.1924 20.3835H21.8159V19.2815C21.8159 19.0873 21.6585 18.9298 21.4643 18.9298H21.0877V12.7562C21.0877 12.5619 20.9304 12.4045 20.7362 12.4045C20.542 12.4045 20.3846 12.5619 20.3846 12.7562V18.9268H18.1759V7.97171H20.3846V11.2232C20.3846 11.4175 20.542 11.5749 20.7362 11.5749C20.9304 11.5749 21.0877 11.4175 21.0877 11.2232V7.97161H21.4643C21.6585 7.97161 21.8159 7.81416 21.8159 7.61991V6.52088H22.1926C22.3868 6.52088 22.5442 6.36342 22.5442 6.16917V5.06433H22.9204C23.1146 5.06433 23.2719 4.90688 23.2719 4.71263V3.25416C23.2719 3.05991 23.1146 2.90246 22.9204 2.90246H22.5442V1.79925C22.5442 1.605 22.3868 1.44755 22.1926 1.44755H15.9919V0.342752C15.9266 0.0270022 15.7445 -0.0705915 15.4456 0.049971C14.1067 0.94144 12.8052 0.941393 11.4668 0.0500179C11.1679 -0.0705915 10.9858 0.0269554 10.9205 0.342752V1.44755H6.12136C5.92716 1.44755 5.7698 1.605 5.7698 1.79925C5.7698 1.9935 5.92716 2.15096 6.12136 2.15096H10.9205V2.87949C10.1346 2.98036 9.35128 2.76553 8.55474 2.23505C8.25577 2.11444 8.07366 2.21199 8.00836 2.52778V5.81752H2.15897V5.06438H5.35538C5.54958 5.06438 5.70694 4.90692 5.70694 4.71267V3.25416C5.70694 3.05991 5.54958 2.90246 5.35538 2.90246H2.15897V2.15096H4.58948C5.05411 2.13525 5.05547 1.46381 4.58948 1.44755H1.80741C1.6132 1.44755 1.45584 1.605 1.45584 1.79925V2.90246H0.987234C0.793031 2.90246 0.635672 3.05991 0.635672 3.25416V4.71267C0.635672 4.90692 0.793031 5.06438 0.987234 5.06438H1.45584V6.16922C1.45584 6.36347 1.6132 6.52092 1.80741 6.52092H2.18409V7.61996C2.18409 7.81421 2.34145 7.97166 2.53566 7.97166H2.91211V18.9269H2.53566C2.34145 18.9269 2.18409 19.0844 2.18409 19.2786V20.3835H1.80764C1.61344 20.3835 1.45608 20.541 1.45608 20.7352V21.84H0.351562C0.157359 21.84 0 21.9975 0 22.1918V23.6483C0 23.8425 0.157359 24 0.351562 24H23.6484C23.8426 24 24 23.8426 24 23.6483V22.1917C24 21.9975 23.8426 21.84 23.6484 21.84ZM1.3388 3.60581H5.00381V4.36092H1.3388V3.60581ZM21.1128 20.3805H17.4478V19.6332H21.1128V20.3805ZM21.1128 7.2682H17.4478V6.52088H21.1128V7.2682ZM22.5689 4.36092H18.9038V3.60581H22.5689V4.36092ZM21.841 2.15096V2.90246H18.5522C18.358 2.90246 18.2007 3.05991 18.2007 3.25416V4.71267C18.2007 4.90692 18.358 5.06438 18.5522 5.06438H21.841V5.81752H15.207C15.6904 5.35538 15.9919 4.70452 15.9919 3.98447V2.15096H21.841ZM11.6236 0.957049C12.8417 1.57955 14.0703 1.57964 15.2888 0.956955V3.98447C15.3022 5.13202 14.1982 6.02513 13.0796 5.77885V4.71267C13.0796 4.50502 13.2485 4.33608 13.4561 4.33608C13.6636 4.33608 13.8325 4.50502 13.8325 4.71267C13.8325 4.90692 13.9899 5.06438 14.1841 5.06438C14.3783 5.06438 14.5357 4.90692 14.5357 4.71267C14.5503 3.97472 13.7628 3.43153 13.0796 3.70041V2.52774C13.0143 2.21194 12.8321 2.11439 12.5332 2.235C12.2284 2.43802 11.9254 2.59481 11.6236 2.70535V0.957049ZM8.71144 3.14199C9.92977 3.76463 11.1582 3.76472 12.3765 3.14199V6.16556C12.3764 6.16758 12.3764 6.1696 12.3765 6.17161C12.2812 8.59913 8.8028 8.59524 8.71144 6.16922V3.14199ZM8.03259 6.52088C8.496 9.41578 12.593 9.41367 13.0553 6.52088H16.7446V7.61991C16.7446 7.81416 16.902 7.97161 17.0962 7.97161H17.4727V18.9298H17.0962C16.902 18.9298 16.7446 19.0873 16.7446 19.2815V20.3835H15.2636V13.8038H15.6403C15.8345 13.8038 15.9919 13.6463 15.9919 13.452V11.9955C15.9919 11.8013 15.8345 11.6438 15.6403 11.6438H12.7659C12.3004 11.66 12.3008 12.3313 12.7659 12.3473H15.2888V13.1003H8.7112V12.3473H11.2341C11.6996 12.3311 11.6992 11.6598 11.2341 11.6438H8.35964C8.16544 11.6438 8.00808 11.8013 8.00808 11.9955V13.452C8.00808 13.6463 8.16544 13.8038 8.35964 13.8038H8.73633V20.3834H7.25536V19.2785C7.25536 19.0843 7.098 18.9268 6.9038 18.9268H6.52734V7.97161H6.9038C7.098 7.97161 7.25536 7.81416 7.25536 7.61991V6.52088H8.03259ZM9.4395 13.8038H11.6484V20.3805H9.4395V13.8038ZM12.3516 20.3805V13.8038H14.5605V20.3805H12.3516V20.3805ZM2.88722 6.52092H6.55223V7.26825H2.88722V6.52092ZM3.61528 7.97161H5.82422V18.9269H3.61528V7.97161ZM2.88722 19.6302H6.55223V20.3835H2.88722V19.6302ZM2.1592 21.0869H21.8408V21.84H2.1592V21.0869ZM23.2969 23.2966H0.703125V22.5434H23.2969V23.2966Z" fill="#C6A26E"/>
</g>
<defs>
<clipPath id="clip0_1_94">
<rect width="24" height="24" fill="white"/>
</clipPath>
</defs>
</svg>
