<svg width="24" height="24" viewBox="0 0 24 24" fill="none" xmlns="http://www.w3.org/2000/svg">
<g clip-path="url(#clip0_1_73)">
<path d="M23.6484 20.8495H23.6243V19.6981C23.6243 19.5038 23.4668 19.3466 23.2727 19.3466H22.4837L22.1351 10.2799H22.1455C22.3396 10.2799 22.4971 10.1226 22.4971 9.92834V8.40125H23.2727C23.4377 8.40125 23.5803 8.2868 23.616 8.12585C23.6517 7.9649 23.5708 7.80084 23.4214 7.73108L12.1489 2.47046C12.0546 2.42651 11.9456 2.42651 11.8513 2.47046L0.578796 7.73108C0.429382 7.80084 0.34845 7.9649 0.384155 8.12585C0.419861 8.2868 0.562683 8.40125 0.727478 8.40125H1.50311V9.92834C1.50311 10.1226 1.6604 10.2799 1.85468 10.2799H1.86493L1.5163 19.3464H0.727295C0.533203 19.3464 0.375732 19.5038 0.375732 19.6979V20.8495H0.351562C0.157471 20.8495 0 21.007 0 21.201C0 21.3951 0.157471 21.5526 0.351562 21.5526H23.6484C23.8425 21.5526 24 21.3951 24 21.201C24 21.007 23.8425 20.8495 23.6484 20.8495ZM2.20624 8.40125L8.61823 8.40106C8.81232 8.40106 8.96979 8.24377 8.96979 8.0495C8.96979 7.85541 8.81232 7.69794 8.61823 7.69794H2.31207L12.0002 3.17688L21.6881 7.69794H13.8788C13.6846 7.69794 13.5273 7.85541 13.5273 8.0495C13.5273 8.24377 13.6846 8.40106 13.8788 8.40106L21.7939 8.40125V9.57678H18.7635C18.5695 9.57678 18.412 9.73425 18.412 9.92834C18.412 10.1226 18.5695 10.2799 18.7635 10.2799H19.5256L19.3773 14.1335C18.5354 13.3094 17.3685 11.957 16.7014 10.2799H17.2608C17.4549 10.2799 17.6124 10.1226 17.6124 9.92834C17.6124 9.73425 17.4549 9.57678 17.2608 9.57678H2.20624V8.40125ZM21.78 19.3466H19.8805L20.2291 10.2799H21.4314L21.78 19.3466ZM8.05096 10.2799H8.89673C7.93689 13.2045 5.64056 15.312 4.69775 16.0825L4.65912 15.0809C5.57831 14.243 7.2594 12.4655 8.05096 10.2799ZM4.62268 14.1335L4.47437 10.2799H7.29858C6.63153 11.957 5.4646 13.3094 4.62268 14.1335ZM5.46918 16.3552C5.74677 16.7864 6.37207 17.8735 6.68994 19.3466H4.82318L4.7309 16.9481C4.83325 16.8739 5.10205 16.673 5.46918 16.3552ZM5.9967 15.8769C6.23584 15.6498 6.49493 15.39 6.76337 15.0983C8.47137 13.2416 9.26514 11.4937 9.63409 10.2799H14.3661C14.9973 12.3633 16.2647 14.0416 17.2366 15.0983C17.5051 15.39 17.7642 15.6498 18.0033 15.8769C17.722 16.2946 16.9466 17.5662 16.5923 19.3466H7.40771C7.05341 17.566 6.27795 16.2946 5.9967 15.8769ZM18.5312 16.3555C18.8981 16.673 19.1667 16.8739 19.2691 16.9481L19.1768 19.3466H17.3101C17.6274 17.879 18.2534 16.7882 18.5312 16.3555ZM15.1033 10.2799H15.949C16.7327 12.4438 18.4156 14.217 19.3414 15.0654L19.3022 16.0825C18.3594 15.312 16.0631 13.2043 15.1033 10.2799ZM22.9211 20.8495H1.07886V20.0497H2.23022C2.4245 20.0497 2.58179 19.8922 2.58179 19.6981C2.58179 19.5038 2.4245 19.3466 2.23022 19.3466H2.21997L2.5686 10.2799H3.77069L4.11951 19.3466H3.73334C3.53925 19.3466 3.38177 19.5038 3.38177 19.6981C3.38177 19.8922 3.53925 20.0497 3.73334 20.0497H22.9211V20.8495Z" fill="#C6A26E"/>
<path d="M11.2485 9.15277C12.0638 9.15277 12.7272 8.48938 12.7272 7.67401V7.60718C13.3734 7.44897 13.8544 6.86523 13.8544 6.1709V5.0437C13.8544 4.84961 13.6971 4.69214 13.5029 4.69214H11.2485C11.0542 4.69214 10.8969 4.84961 10.8969 5.0437V6.1709C10.8969 6.17914 10.8975 6.18719 10.898 6.19507H10.1211C9.927 6.19507 9.76953 6.35254 9.76953 6.54663V7.67401C9.76953 8.48938 10.4329 9.15277 11.2485 9.15277ZM11.6 6.1709V5.39526H13.1515V6.1709C13.1515 6.47211 12.9786 6.73303 12.7272 6.86139V6.54663C12.7272 6.35254 12.5699 6.19507 12.3757 6.19507H11.5988C11.5993 6.18701 11.6 6.17914 11.6 6.1709ZM10.4727 6.89819H12.0241V7.67383C12.0241 8.10156 11.6762 8.44965 11.2485 8.44965C10.8207 8.44965 10.4728 8.10156 10.4728 7.67383V6.89819H10.4727Z" fill="#C6A26E"/>
</g>
<defs>
<clipPath id="clip0_1_73">
<rect width="24" height="24" fill="white"/>
</clipPath>
</defs>
</svg>
