<svg width="24" height="24" viewBox="0 0 24 24" fill="none" xmlns="http://www.w3.org/2000/svg">
<path d="M23.0909 2.12255C22.9698 2.01966 22.8104 1.97527 22.6536 2.0011C21.8075 2.13952 17.3171 2.83004 11.9999 2.83004C6.6827 2.83004 2.1923 2.13952 1.34615 2.0011C1.1895 1.9756 1.02993 2.01971 0.908809 2.12255C0.787731 2.22544 0.718262 2.37558 0.718262 2.53453V6.82918C0.718309 7.02362 0.875903 7.18126 1.07039 7.18126C1.26487 7.18126 1.42247 7.02367 1.42247 6.82918V2.72663C2.84339 2.95158 7.00927 3.53424 11.9999 3.53424C16.9902 3.53424 21.156 2.95163 22.5772 2.72663V6.82731C22.5772 7.02179 22.7348 7.17939 22.9293 7.17939C23.1238 7.17939 23.2814 7.02175 23.2814 6.82731V2.53453C23.2814 2.37558 23.2119 2.22544 23.0909 2.12255Z" fill="#C6A26E"/>
<path d="M22.9297 8.11523C22.7352 8.11523 22.5776 8.27288 22.5776 8.46731V12.5665C21.1568 12.3415 16.9909 11.7589 12.0003 11.7589C7.00995 11.7589 2.84411 12.3415 1.42291 12.5665V8.46731C1.42291 8.27283 1.26527 8.11523 1.07083 8.11523C0.876391 8.11523 0.71875 8.27288 0.71875 8.46731V12.7585C0.718563 12.9175 0.788032 13.0677 0.90911 13.1706C1.00764 13.2543 1.13149 13.2992 1.25875 13.2992C1.28786 13.2992 1.3172 13.2968 1.34641 13.292C2.1926 13.1536 6.683 12.463 12.0002 12.463C17.3174 12.463 21.8078 13.1536 22.6539 13.292C22.8106 13.3179 22.9702 13.2734 23.0912 13.1705C23.2123 13.0676 23.2818 12.9175 23.2818 12.7585V8.46731C23.2818 8.27283 23.1242 8.11523 22.9297 8.11523Z" fill="#C6A26E"/>
<path d="M21.6435 3.80977C21.4976 3.68142 21.3033 3.62217 21.1106 3.64697C19.0167 3.91688 15.7364 4.23853 12.0002 4.23853C8.26361 4.23853 4.98347 3.91683 2.88975 3.64692C2.69705 3.62203 2.5028 3.68138 2.35683 3.80972C2.21077 3.93816 2.12695 4.1235 2.12695 4.31808V10.9752C2.12695 11.1699 2.21077 11.3552 2.35683 11.4836C2.48095 11.5927 2.63995 11.6519 2.80327 11.6519C2.832 11.6519 2.86088 11.6501 2.88975 11.6464C4.98361 11.3765 8.26393 11.0548 12.0002 11.0548C15.7367 11.0548 19.0168 11.3765 21.1106 11.6464C21.3032 11.6711 21.4976 11.6119 21.6435 11.4836C21.7896 11.3552 21.8734 11.1698 21.8734 10.9752V4.31813C21.8734 4.1235 21.7896 3.93821 21.6435 3.80977ZM12.0002 10.3507C8.24523 10.3507 4.94686 10.6723 2.83116 10.944V4.34939C4.94668 4.62108 8.2449 4.94274 12.0002 4.94274C15.7551 4.94274 19.0535 4.62108 21.1692 4.34939V10.944C19.0536 10.6723 15.7554 10.3507 12.0002 10.3507Z" fill="#C6A26E"/>
<path d="M23.5603 20.0777H23.0391V18.2641C23.0391 17.4232 22.3549 16.739 21.514 16.739H20.9107V15.7595C20.9107 14.9186 20.2266 14.2344 19.3856 14.2344H17.4549C16.9837 14.2344 16.5618 14.4493 16.2818 14.786C16.0018 14.4493 15.58 14.2344 15.1088 14.2344H13.1781C12.7069 14.2344 12.285 14.4493 12.005 14.786C11.7251 14.4493 11.3032 14.2344 10.832 14.2344H8.90135C8.43016 14.2344 8.00823 14.4493 7.72825 14.786C7.44827 14.4493 7.02639 14.2344 6.5552 14.2344H4.62446C3.78352 14.2344 3.09933 14.9186 3.09933 15.7595V16.739H2.47604C1.6351 16.739 0.950908 17.4232 0.950908 18.2641V20.0777H0.439782C0.19725 20.0777 0 20.275 0 20.5175V21.5662C0 21.8088 0.197297 22.006 0.439782 22.006H23.5602C23.8028 22.006 24 21.8087 24 21.5662V20.5175C24 20.275 23.8028 20.0777 23.5603 20.0777ZM20.5586 17.4432L21.5139 17.4432C21.9666 17.4432 22.3349 17.8115 22.3349 18.2641V20.0777H18.7623V18.2641C18.7623 18.2419 18.7639 18.22 18.7656 18.1982C18.767 18.1809 18.7692 18.1638 18.7716 18.1468C18.7731 18.137 18.7744 18.1272 18.7761 18.1175C18.7791 18.1012 18.7827 18.0853 18.7866 18.0694C18.789 18.0594 18.7915 18.0495 18.7942 18.0397C18.7986 18.0243 18.8036 18.0091 18.8089 17.994C18.8122 17.9844 18.8157 17.9748 18.8194 17.9653C18.8253 17.9504 18.8316 17.9357 18.8383 17.9213C18.8424 17.9123 18.8466 17.9035 18.8511 17.8947C18.8585 17.8802 18.8662 17.8659 18.8744 17.8519C18.879 17.8439 18.8839 17.8361 18.8888 17.8283C18.8977 17.8141 18.9071 17.8001 18.9169 17.7865C18.9218 17.7796 18.9269 17.7729 18.9321 17.7662C18.9427 17.7524 18.9536 17.7388 18.9651 17.7257C18.9701 17.7199 18.9753 17.7143 18.9805 17.7087C18.9928 17.6954 19.0054 17.6823 19.0185 17.6699C19.0235 17.6651 19.0287 17.6605 19.0339 17.6559C19.0477 17.6433 19.0619 17.631 19.0767 17.6195C19.0817 17.6155 19.0869 17.6118 19.0921 17.6079C19.1074 17.5964 19.1229 17.5852 19.139 17.5748C19.1443 17.5714 19.1497 17.5683 19.1551 17.565C19.1714 17.555 19.188 17.5452 19.2051 17.5363C19.211 17.5332 19.2171 17.5305 19.2231 17.5276C19.24 17.5192 19.2571 17.5111 19.2746 17.5039C19.2818 17.501 19.2892 17.4986 19.2965 17.4959C19.3132 17.4896 19.3301 17.4833 19.3474 17.4781C19.3567 17.4753 19.3664 17.4732 19.376 17.4707C19.3916 17.4666 19.4072 17.4623 19.4231 17.4591C19.4366 17.4564 19.4504 17.4548 19.4642 17.4528C19.4767 17.451 19.4891 17.4486 19.5018 17.4473C19.5286 17.4447 19.5557 17.4432 19.5832 17.4432H20.5586ZM16.6339 15.7595C16.6339 15.3068 17.0022 14.9385 17.4549 14.9385H19.3856C19.8382 14.9385 20.2065 15.3068 20.2065 15.7595V16.739H19.5833C19.5552 16.739 19.5274 16.7399 19.4997 16.7414C19.4923 16.7418 19.485 16.7426 19.4776 16.7431C19.4571 16.7445 19.4365 16.7461 19.4161 16.7484C19.4086 16.7492 19.4012 16.7503 19.3938 16.7512C19.3732 16.7538 19.3528 16.7567 19.3325 16.76C19.3262 16.761 19.3199 16.7623 19.3136 16.7634C19.2917 16.7673 19.2699 16.7717 19.2482 16.7766C19.244 16.7775 19.2396 16.7785 19.2354 16.7795C19.2109 16.7852 19.1867 16.7916 19.1627 16.7984C19.1614 16.7989 19.16 16.7992 19.1586 16.7996C18.8621 16.8857 18.6026 17.0592 18.4101 17.2907C18.2177 17.0592 17.9581 16.8857 17.6617 16.7996C17.6604 16.7992 17.659 16.7989 17.6577 16.7985C17.6337 16.7916 17.6094 16.7853 17.5849 16.7795C17.5807 16.7785 17.5764 16.7775 17.5722 16.7766C17.5505 16.7717 17.5287 16.7673 17.5067 16.7634C17.5005 16.7623 17.4943 16.7611 17.488 16.76C17.4677 16.7566 17.4472 16.7538 17.4267 16.7512C17.4192 16.7503 17.4118 16.7492 17.4043 16.7483C17.3839 16.7461 17.3634 16.7445 17.3428 16.743C17.3354 16.7425 17.3281 16.7418 17.3207 16.7413C17.293 16.7398 17.2652 16.739 17.2371 16.739H16.6339V15.7595ZM16.2818 17.4432V17.4432H17.2371C17.2646 17.4432 17.2918 17.4446 17.3186 17.4473C17.3314 17.4486 17.3438 17.4509 17.3564 17.4528C17.37 17.4548 17.3838 17.4564 17.3972 17.4591C17.4133 17.4623 17.429 17.4666 17.4447 17.4708C17.4541 17.4732 17.4636 17.4753 17.4729 17.478C17.4904 17.4833 17.5073 17.4896 17.5243 17.496C17.5314 17.4987 17.5386 17.501 17.5457 17.5038C17.5634 17.511 17.5806 17.5192 17.5977 17.5277C17.6035 17.5305 17.6095 17.5331 17.6152 17.5361C17.6324 17.5451 17.6491 17.555 17.6657 17.5652C17.6709 17.5684 17.6762 17.5714 17.6813 17.5747C17.6975 17.5852 17.7133 17.5965 17.7287 17.6081C17.7337 17.6118 17.7388 17.6154 17.7437 17.6193C17.7585 17.631 17.7728 17.6434 17.7868 17.656C17.7918 17.6606 17.7969 17.665 17.8018 17.6697C17.8151 17.6823 17.8277 17.6954 17.8401 17.7088C17.8452 17.7143 17.8504 17.7199 17.8553 17.7256C17.8668 17.7388 17.8778 17.7524 17.8884 17.7663C17.8936 17.773 17.8987 17.7797 17.9036 17.7866C17.9134 17.8002 17.9226 17.8141 17.9316 17.8282C17.9366 17.8361 17.9414 17.844 17.9461 17.8521C17.9542 17.866 17.9619 17.8801 17.9692 17.8945C17.9738 17.9034 17.9781 17.9125 17.9823 17.9216C17.9889 17.9359 17.9951 17.9503 18.0009 17.965C18.0048 17.9747 18.0083 17.9846 18.0118 17.9946C18.0169 18.0093 18.0218 18.0241 18.0261 18.0392C18.029 18.0494 18.0315 18.0598 18.0341 18.0702C18.0378 18.0856 18.0414 18.1011 18.0442 18.1169C18.0461 18.1272 18.0475 18.1376 18.049 18.1479C18.0513 18.1643 18.0535 18.1808 18.0548 18.1976C18.0566 18.2196 18.0582 18.2417 18.0582 18.2641V20.0777H14.4855V18.2641C14.4855 18.2419 14.4871 18.22 14.4889 18.1982C14.4902 18.1809 14.4925 18.1638 14.4949 18.1468C14.4963 18.137 14.4976 18.1272 14.4994 18.1175C14.5024 18.1012 14.506 18.0853 14.5099 18.0694C14.5123 18.0594 14.5147 18.0495 14.5175 18.0397C14.5219 18.0243 14.5269 18.0091 14.5321 17.994C14.5355 17.9844 14.5389 17.9748 14.5427 17.9653C14.5485 17.9504 14.5549 17.9357 14.5615 17.9213C14.5656 17.9123 14.5699 17.9035 14.5744 17.8947C14.5817 17.8802 14.5895 17.8659 14.5977 17.8519C14.6023 17.8439 14.6071 17.8361 14.612 17.8283C14.621 17.8141 14.6303 17.8001 14.6401 17.7865C14.645 17.7796 14.6502 17.7729 14.6553 17.7662C14.666 17.7524 14.6769 17.7388 14.6883 17.7257C14.6933 17.7199 14.6985 17.7143 14.7037 17.7087C14.716 17.6954 14.7286 17.6823 14.7417 17.6699C14.7468 17.6651 14.752 17.6605 14.7571 17.6559C14.771 17.6433 14.7852 17.631 14.7999 17.6195C14.8049 17.6155 14.8102 17.6118 14.8153 17.6079C14.8306 17.5964 14.8462 17.5852 14.8623 17.5748C14.8675 17.5714 14.873 17.5683 14.8783 17.565C14.8947 17.555 14.9113 17.5452 14.9284 17.5363C14.9342 17.5332 14.9404 17.5305 14.9463 17.5276C14.9633 17.5192 14.9803 17.5111 14.9979 17.5039C15.005 17.501 15.0125 17.4986 15.0197 17.4959C15.0365 17.4896 15.0533 17.4833 15.0706 17.4781C15.08 17.4753 15.0897 17.4732 15.0993 17.4707C15.1149 17.4666 15.1304 17.4623 15.1464 17.4591C15.1599 17.4564 15.1737 17.4548 15.1874 17.4528C15.2 17.451 15.2123 17.4486 15.225 17.4473C15.2518 17.4447 15.279 17.4432 15.3065 17.4432H16.2818ZM13.1781 14.9385H15.1088C15.5615 14.9385 15.9298 15.3068 15.9298 15.7595V16.739H15.3065C15.2784 16.739 15.2506 16.7399 15.2229 16.7414C15.2155 16.7418 15.2082 16.7426 15.2008 16.7431C15.1802 16.7445 15.1597 16.7461 15.1393 16.7484C15.1318 16.7492 15.1244 16.7503 15.117 16.7512C15.0965 16.7538 15.076 16.7567 15.0557 16.76C15.0494 16.761 15.0432 16.7623 15.0369 16.7634C15.0149 16.7673 14.9931 16.7717 14.9715 16.7766C14.9672 16.7775 14.9629 16.7785 14.9586 16.7795C14.9342 16.7852 14.91 16.7916 14.886 16.7984C14.8846 16.7989 14.8832 16.7992 14.8818 16.7996C14.5854 16.8857 14.3258 17.0592 14.1334 17.2907C13.941 17.0592 13.6814 16.8857 13.3849 16.7996C13.3836 16.7992 13.3823 16.7989 13.381 16.7985C13.3569 16.7916 13.3327 16.7853 13.3082 16.7795C13.3039 16.7785 13.2997 16.7775 13.2954 16.7766C13.2738 16.7717 13.252 16.7673 13.23 16.7634C13.2237 16.7623 13.2175 16.7611 13.2112 16.76C13.1909 16.7566 13.1704 16.7538 13.1499 16.7512C13.1425 16.7503 13.1351 16.7492 13.1276 16.7483C13.1072 16.7461 13.0866 16.7445 13.0661 16.743C13.0587 16.7425 13.0514 16.7418 13.044 16.7413C13.0163 16.7398 12.9884 16.739 12.9604 16.739H12.3572V15.7595C12.3572 15.3068 12.7254 14.9385 13.1781 14.9385ZM12.005 17.4432H12.9604C12.9878 17.4432 13.015 17.4446 13.0418 17.4473C13.0546 17.4486 13.067 17.4509 13.0796 17.4528C13.0932 17.4548 13.107 17.4564 13.1204 17.4591C13.1365 17.4623 13.1522 17.4666 13.1679 17.4708C13.1773 17.4732 13.1869 17.4753 13.1961 17.478C13.2136 17.4833 13.2305 17.4896 13.2475 17.496C13.2546 17.4987 13.2619 17.501 13.2689 17.5038C13.2866 17.511 13.3039 17.5192 13.3209 17.5277C13.3267 17.5305 13.3327 17.5331 13.3384 17.5361C13.3557 17.5451 13.3723 17.555 13.3889 17.5652C13.3941 17.5684 13.3994 17.5714 13.4045 17.5747C13.4208 17.5852 13.4365 17.5965 13.4519 17.6081C13.4569 17.6118 13.462 17.6154 13.4669 17.6193C13.4817 17.631 13.496 17.6434 13.51 17.656C13.515 17.6606 13.5201 17.665 13.5251 17.6697C13.5383 17.6823 13.5509 17.6954 13.5633 17.7088C13.5684 17.7143 13.5736 17.7199 13.5785 17.7256C13.59 17.7388 13.601 17.7524 13.6116 17.7663C13.6168 17.773 13.6219 17.7797 13.6268 17.7866C13.6366 17.8002 13.6459 17.8141 13.6548 17.8282C13.6598 17.8361 13.6646 17.844 13.6693 17.8521C13.6774 17.866 13.6851 17.8801 13.6924 17.8945C13.697 17.9034 13.7013 17.9125 13.7055 17.9216C13.7121 17.9359 13.7183 17.9503 13.7241 17.965C13.728 17.9747 13.7315 17.9846 13.735 17.9946C13.7401 18.0093 13.745 18.0241 13.7493 18.0392C13.7522 18.0494 13.7547 18.0598 13.7573 18.0702C13.761 18.0856 13.7646 18.1011 13.7674 18.1169C13.7693 18.1272 13.7707 18.1376 13.7722 18.1479C13.7745 18.1643 13.7767 18.1808 13.778 18.1976C13.7798 18.2196 13.7814 18.2417 13.7814 18.2641V20.0777H10.2087V18.2641C10.2087 18.2403 10.2103 18.2169 10.2123 18.1935C10.2124 18.1927 10.2125 18.192 10.2126 18.1911C10.2447 17.8247 10.5228 17.5276 10.8736 17.4584C10.8806 17.4571 10.8877 17.4564 10.8948 17.4552C10.9129 17.4521 10.9311 17.449 10.9497 17.4472C10.976 17.4446 11.0027 17.4432 11.0297 17.4432H12.005ZM8.08033 15.7595C8.08033 15.3068 8.44867 14.9385 8.90135 14.9385H10.832C11.2847 14.9385 11.653 15.3068 11.653 15.7595V16.739H11.0297C11.0022 16.739 10.9749 16.7398 10.9478 16.7413C10.9331 16.742 10.9187 16.7434 10.9042 16.7446C10.8926 16.7455 10.8808 16.7463 10.8693 16.7475C10.8484 16.7496 10.8278 16.7525 10.8071 16.7554C10.8031 16.756 10.799 16.7565 10.795 16.7571C10.4221 16.8137 10.0938 17.0031 9.86182 17.279C9.58216 16.9464 9.16277 16.739 8.69364 16.739H8.68361H8.08033V15.7595ZM7.7282 17.4432V17.4432H8.68352C9.13619 17.4432 9.50449 17.8115 9.50449 18.2641V20.0777H5.93186V18.2641C5.93186 18.2403 5.93345 18.2169 5.93542 18.1935C5.93551 18.1927 5.93565 18.192 5.93575 18.1912C5.96786 17.8247 6.24592 17.5277 6.59673 17.4585C6.60372 17.4571 6.61093 17.4564 6.61797 17.4553C6.63615 17.4522 6.65434 17.4491 6.67286 17.4472C6.6992 17.4447 6.72583 17.4432 6.75283 17.4432H7.7282ZM3.80349 15.7595C3.80349 15.3068 4.17179 14.9385 4.62446 14.9385H6.55515C7.00783 14.9385 7.37612 15.3068 7.37612 15.7595V16.739H6.75292C6.7254 16.739 6.69812 16.7398 6.67098 16.7413C6.65636 16.742 6.64187 16.7434 6.62734 16.7446C6.61572 16.7455 6.60404 16.7463 6.59251 16.7475C6.57165 16.7496 6.55103 16.7525 6.53045 16.7554C6.52637 16.756 6.52225 16.7565 6.51817 16.7571C6.14523 16.8137 5.81696 17.0031 5.58498 17.279C5.30532 16.9464 4.88593 16.739 4.41681 16.739H4.40673H3.80349V15.7595ZM1.65507 18.2641C1.65507 17.8115 2.02336 17.4432 2.47604 17.4432H3.45141H4.40673C4.8594 17.4432 5.2277 17.8115 5.2277 18.2641V20.0777H1.65507V18.2641ZM23.2958 21.3019H0.704204V20.7819H23.2958V21.3019Z" fill="#C6A26E"/>
</svg>
