<svg width="24" height="24" viewBox="0 0 24 24" fill="none" xmlns="http://www.w3.org/2000/svg">
<g clip-path="url(#clip0_1_28)">
<path d="M23.6321 11.5341V1.34939C23.6321 1.15496 23.4745 0.997314 23.28 0.997314H0.720001C0.525517 0.997314 0.367923 1.15496 0.367923 1.34939V11.5342C0.149391 11.6499 0 11.8794 0 12.1434V12.866C0 13.13 0.149391 13.3596 0.367923 13.4753V22.6507C0.367923 22.8451 0.525564 23.0027 0.720001 23.0027H2.31957H3.89012H3.99666H7.94064H11.9913H16.0418H20.0034H20.0924H21.6804H23.28C23.4745 23.0027 23.6321 22.8451 23.6321 22.6507V13.4753C23.8506 13.3595 24 13.13 24 12.866V12.1434C24 11.8794 23.8507 11.6499 23.6321 11.5341ZM22.7951 1.70152C22.6541 1.90889 22.3937 2.1518 21.9816 2.41065C21.9765 2.41383 21.9714 2.41697 21.9663 2.42016C21.9424 2.43507 21.9179 2.45002 21.893 2.46502C21.8816 2.47186 21.8702 2.47866 21.8587 2.4855C21.8397 2.49675 21.8203 2.508 21.8007 2.5193C21.785 2.5284 21.7693 2.53749 21.7531 2.54663C21.7377 2.5554 21.7217 2.56421 21.7058 2.57297C21.6862 2.5839 21.6667 2.59482 21.6465 2.60579C21.643 2.60771 21.6393 2.60963 21.6358 2.6115C21.5848 2.63907 21.5319 2.66663 21.4777 2.69429C21.4632 2.70174 21.4489 2.70915 21.434 2.71655C21.4132 2.72701 21.3919 2.73741 21.3707 2.74786C21.3512 2.75743 21.3317 2.76704 21.3118 2.7766C21.2928 2.78579 21.2735 2.79493 21.2541 2.80411C21.2294 2.81583 21.2043 2.82755 21.1789 2.83927C21.1632 2.84654 21.1475 2.8538 21.1315 2.86107C21.0969 2.87687 21.0616 2.89266 21.0258 2.90846C21.018 2.91193 21.0104 2.91535 21.0025 2.91882C20.8586 2.98191 20.7054 3.04519 20.5424 3.10843C20.5424 3.10843 20.5424 3.10847 20.5423 3.10847C20.3316 3.19022 20.1065 3.27113 19.8659 3.35063C19.2145 3.56574 18.5124 3.75212 17.7734 3.90844C17.7617 3.90971 17.75 3.91145 17.7382 3.91393C17.037 4.06065 16.299 4.18126 15.5448 4.27248C15.5352 4.27365 15.5259 4.27562 15.5165 4.27749C14.381 4.41291 13.1965 4.48365 12 4.48365C10.8036 4.48365 9.61896 4.41296 8.48345 4.27759C8.47413 4.27566 8.46484 4.2737 8.45533 4.27257C7.70073 4.1813 6.96278 4.0607 6.2619 3.91402C6.25014 3.91154 6.23842 3.9098 6.2267 3.90854C5.48771 3.75221 4.78562 3.56583 4.13424 3.35073C3.89359 3.27127 3.66849 3.19032 3.45779 3.10857C3.45774 3.10857 3.45769 3.10852 3.45769 3.10852C3.29471 3.04533 3.14157 2.98205 2.99766 2.91896C2.98974 2.91549 2.98201 2.91197 2.97413 2.90851C2.93837 2.89271 2.90321 2.87696 2.86861 2.86121C2.85268 2.85394 2.83693 2.84668 2.82122 2.83941C2.79582 2.82769 2.77079 2.81593 2.74604 2.80426C2.72668 2.79507 2.70736 2.78593 2.68833 2.77674C2.66841 2.76713 2.64896 2.75757 2.62946 2.74801C2.60822 2.73755 2.5869 2.72715 2.56613 2.71669C2.55132 2.70924 2.53697 2.70183 2.5224 2.69443C2.46877 2.6671 2.41646 2.63977 2.36593 2.61249C2.36185 2.61029 2.35758 2.60808 2.35355 2.60588C2.33344 2.59501 2.31408 2.58413 2.29449 2.57321C2.2786 2.5644 2.26252 2.55554 2.247 2.54672C2.23088 2.53758 2.21518 2.52849 2.19943 2.5194C2.17988 2.5081 2.16047 2.49685 2.14149 2.4856C2.12991 2.47875 2.11852 2.47191 2.10718 2.46511C2.08224 2.45011 2.05772 2.43516 2.03382 2.42025C2.02871 2.41707 2.0236 2.41393 2.01854 2.41074C1.60636 2.15185 1.34602 1.90889 1.20497 1.70157L22.7951 1.70152ZM1.07208 2.5951C1.18055 2.68899 1.305 2.78461 1.44605 2.88146C1.82016 3.1403 2.31877 3.40955 2.98069 3.67843C2.98018 5.89032 2.33508 8.35174 1.78303 10.053C1.72303 10.2379 1.82428 10.4366 2.0093 10.4966C2.19399 10.5565 2.39279 10.4553 2.45288 10.2703C2.99926 8.58653 3.63366 6.17378 3.68162 3.94084C3.75732 3.96704 3.83429 3.99324 3.91341 4.01935C4.48749 4.20891 5.09898 4.37701 5.73939 4.52251C4.99524 6.83139 3.78198 8.73489 2.87265 9.94774C2.75602 10.1033 2.78757 10.324 2.94315 10.4406C3.00647 10.4881 3.08058 10.511 3.15408 10.511C3.26115 10.511 3.3669 10.4624 3.43608 10.3701C4.38727 9.10145 5.66036 7.10181 6.43234 4.66885C6.91726 4.76382 7.41625 4.84627 7.92583 4.91588C7.18 6.74317 5.68796 8.6253 4.52617 9.92135C4.39637 10.0661 4.40851 10.2888 4.55335 10.4186C4.6982 10.5484 4.92076 10.5362 5.05056 10.3914C7.2168 7.97486 8.20066 6.1637 8.64752 5.00485C9.73535 5.12513 10.863 5.18776 12 5.18776C13.1371 5.18776 14.2647 5.12513 15.3526 5.00485C16.1139 6.9849 17.7152 9.01492 18.9524 10.3949C19.0822 10.5396 19.3048 10.5518 19.4496 10.422C19.5944 10.2922 19.6066 10.0696 19.4767 9.92477C18.3139 8.62783 16.8204 6.7442 16.0741 4.91593C16.5838 4.84637 17.0827 4.76392 17.5676 4.6689C18.3405 7.10476 19.6157 9.10642 20.5686 10.3764C20.6377 10.4686 20.7434 10.5172 20.8505 10.5172C20.924 10.5172 20.9982 10.4942 21.0615 10.4467C21.217 10.33 21.2485 10.1093 21.1318 9.95374C20.2209 8.73967 19.0056 6.83415 18.2606 4.52246C18.9009 4.37696 19.5125 4.20887 20.0865 4.0193C20.1657 3.9932 20.2426 3.96699 20.3183 3.94079C20.3663 6.17256 21 8.58377 21.5459 10.2664C21.6059 10.4515 21.8045 10.5526 21.9894 10.4928C22.1744 10.4328 22.2757 10.2341 22.2157 10.0492C21.6642 8.34902 21.0198 5.8892 21.0193 3.67838C21.6812 3.40951 22.1798 3.14026 22.554 2.88141C22.695 2.78457 22.8195 2.68899 22.9279 2.59505V11.4541H20.9748C20.5948 11.4541 20.2856 11.7633 20.2856 12.1433V12.866C20.2856 13.0533 20.3609 13.2231 20.4826 13.3474C20.2694 13.9954 20.0152 14.8088 19.7716 15.6899H4.22846C3.9848 14.8088 3.7306 13.9953 3.51746 13.3474C3.6391 13.2231 3.71443 13.0533 3.71443 12.866V12.1433C3.71443 11.7633 3.40524 11.4541 3.02522 11.4541H1.07208V2.5951ZM0.704204 12.851V12.1584H3.01022V12.851H1.67199H0.720001H0.704204ZM2.51583 22.1839C2.47688 22.2547 2.40169 22.2986 2.31957 22.2986H1.07208V13.5552H1.40939C2.6918 17.897 3.10571 21.1128 2.51583 22.1839ZM4.2422 22.2986V20.3552C4.2422 19.9367 4.58265 19.5963 5.0011 19.5963H6.8297C7.24816 19.5963 7.58856 19.9367 7.58856 20.3552V22.2986H4.2422ZM8.29277 22.2986V20.3552C8.29277 19.9367 8.63322 19.5963 9.05167 19.5963H10.8802C11.2987 19.5963 11.6391 19.9367 11.6391 20.3552V22.2986H8.29277ZM12.3434 22.2986V20.3552C12.3434 19.9367 12.6838 19.5963 13.1022 19.5963H14.9308C15.3493 19.5963 15.6897 19.9367 15.6897 20.3552V22.2986H12.3434ZM19.7403 22.2986H16.3939V20.3552C16.3939 19.9367 16.7344 19.5963 17.1528 19.5963H18.9814C19.3998 19.5963 19.7403 19.9367 19.7403 20.3552V22.2986ZM20.4445 22.2985V20.3552C20.4445 19.5484 19.7881 18.8921 18.9814 18.8921H17.1529C16.7087 18.8921 16.3104 19.0913 16.0418 19.4048C15.7733 19.0913 15.375 18.8921 14.9308 18.8921H13.1022C12.6581 18.8921 12.2598 19.0913 11.9913 19.4047C11.7227 19.0913 11.3244 18.8921 10.8802 18.8921H9.05167C8.60753 18.8921 8.20924 19.0913 7.94064 19.4047C7.67209 19.0913 7.2738 18.8921 6.82965 18.8921H5.0011C4.19434 18.8921 3.53799 19.5484 3.53799 20.3552V22.2986H3.23719C3.95082 20.495 2.9311 16.2599 2.14322 13.5552H2.84452C3.17719 14.5656 3.61257 15.9882 3.94613 17.4329C3.98987 17.6224 4.17891 17.7405 4.36843 17.6968C4.5579 17.653 4.67602 17.464 4.63229 17.2745C4.56404 16.9789 4.49166 16.6844 4.41681 16.3941H19.5833C19.5077 16.6873 19.4346 16.9847 19.3658 17.2832C19.3221 17.4726 19.4403 17.6617 19.6298 17.7054C19.6565 17.7115 19.683 17.7145 19.7093 17.7145C19.8696 17.7145 20.0145 17.6043 20.0521 17.4414C20.386 15.9936 20.8222 14.5677 21.1556 13.5552H21.8569C21.069 16.2599 20.0493 20.4949 20.7629 22.2985H20.4445ZM22.928 22.2986H21.6805C21.5984 22.2986 21.5232 22.2547 21.4843 22.1839C20.8944 21.1128 21.3083 17.897 22.5907 13.5552H22.928V22.2986ZM23.2958 12.851H23.28H22.3281H20.9898V12.1584H23.2958V12.851Z" fill="#C6A26E"/>
</g>
<defs>
<clipPath id="clip0_1_28">
<rect width="24" height="24" fill="white"/>
</clipPath>
</defs>
</svg>
